<svg width="110" height="145" viewBox="0 0 110 145" fill="none" xmlns="http://www.w3.org/2000/svg">
<path d="M59.4021 57.4668C63.8529 55.1595 65.5869 49.6847 63.2796 45.2475C60.9722 40.7967 55.4974 39.0628 51.0602 41.3701C46.6094 43.6774 44.8755 49.1522 47.1828 53.5894C49.4902 58.0266 54.9513 59.7605 59.4021 57.4668Z" fill="#C7D4DF"/>
<path d="M89.1107 43.9792H89.0015C89.0288 43.788 89.0561 43.6105 89.0561 43.4194C89.0561 24.442 73.6147 9.00061 54.6372 9.00061C36.3151 9.00061 21.297 23.3907 20.2731 41.4534H20V102.017H20.2321C20.2321 102.099 20.2048 102.168 20.2048 102.249C20.2048 121.227 35.6461 136.668 54.6236 136.668C72.8365 136.668 87.7727 122.456 88.9605 104.543H89.097V43.9792H89.1107ZM54.6509 17.1377C69.1366 17.1377 80.919 28.9201 80.919 43.4058C80.919 43.5969 80.9463 43.7744 80.9736 43.9655H80.919V102.209C80.919 102.222 80.919 102.222 80.919 102.236C80.919 105.963 80.1271 109.513 78.7209 112.721L70.4063 105.649C69.9694 105.267 69.3141 105.267 68.8635 105.635L58.4464 114.264C57.9549 114.674 57.2313 114.619 56.7944 114.155L44.0973 100.311C43.6194 99.792 42.8003 99.792 42.3224 100.324L30.7994 113.199C29.2566 109.854 28.3829 106.154 28.3829 102.249C28.3829 101.867 28.3146 101.499 28.219 101.157V44.5253C28.3146 44.1703 28.3829 43.8154 28.3829 43.4331C28.3692 28.9338 40.1653 17.1377 54.6509 17.1377Z" fill="#C7D4DF"/>
</svg>
