<svg width="148" height="197" viewBox="0 0 148 197" fill="none" xmlns="http://www.w3.org/2000/svg">
<path fill-rule="evenodd" clip-rule="evenodd" d="M38.9318 22.4552L91.2996 17.5726C106.623 16.144 120.208 27.3498 121.644 42.6015L132.436 157.275C136.018 153.903 138.018 148.908 138.018 143.306V27.7366C138.018 17.5243 129.701 9.24553 119.441 9.24553H56.7407C48.3243 9.24553 41.2151 14.8162 38.9318 22.4552ZM131.484 168.758C128.323 179.266 119.025 187.337 107.379 188.423L44.4188 194.293C29.0956 195.721 15.5101 184.516 14.0747 169.264L3.19365 53.6453C1.75828 38.3936 13.0166 24.8714 28.3398 23.4428L29.219 23.3608C31.327 10.1214 42.8463 0 56.7407 0H119.441C134.831 0 147.307 12.4181 147.307 27.7366V143.306C147.307 154.75 141.074 164.539 131.484 168.758ZM12.442 52.783C11.4851 42.6152 18.9907 33.6004 29.2061 32.648L92.166 26.7779C102.381 25.8254 111.438 33.296 112.395 43.4638L123.276 159.082C124.233 169.25 116.728 178.265 106.512 179.217L43.5525 185.088C33.337 186.04 24.28 178.57 23.3231 168.402L12.442 52.783Z" fill="#94A3B8"/>
<path d="M95.178 100.176C95.4438 104.773 91.8428 108.705 87.22 109.136L80.9575 109.72C80.4202 109.77 79.8979 109.924 79.4208 110.175C78.9436 110.425 78.5208 110.766 78.1766 111.179C77.8323 111.591 77.5734 112.067 77.4145 112.579C77.2556 113.091 77.1999 113.628 77.2506 114.161L79.6307 139.458C80.0657 144.082 76.79 148.382 72.1351 148.926C70.0091 149.179 67.8652 148.631 66.127 147.392C64.3889 146.153 63.1828 144.311 62.7472 142.232C62.6821 141.921 62.634 141.607 62.6031 141.291L60.2017 115.767C60.0999 114.686 59.5693 113.689 58.7266 112.997C57.8838 112.304 56.798 111.972 55.7079 112.073L49.064 112.693C46.8318 112.851 44.6263 112.136 42.9198 110.701C41.2132 109.266 40.1412 107.224 39.9332 105.014C39.7253 102.804 40.3979 100.6 41.8071 98.8743C43.2162 97.1488 45.25 96.0386 47.4729 95.7817L85.8323 92.2062C86.9779 92.0998 88.1332 92.2236 89.2293 92.5699C90.3254 92.9162 91.3398 93.4779 92.212 94.2218C93.0842 94.9656 93.7964 95.8761 94.306 96.8992C94.8155 97.9222 95.1121 99.0367 95.178 100.176Z" fill="#94A3B8"/>
<path d="M65.5163 86.1746C71.7793 85.5908 76.3602 79.8444 75.7482 73.3397C75.1362 66.8349 69.563 62.035 63.3 62.6188C57.0371 63.2025 52.4561 68.9489 53.0681 75.4537C53.6801 81.9584 59.2534 86.7584 65.5163 86.1746Z" fill="#94A3B8"/>
</svg>
