<svg width="99" height="131" viewBox="0 0 99 131" fill="none" xmlns="http://www.w3.org/2000/svg">
<path d="M41.0601 70.5243L42.6145 59.6557C50.7932 58.8382 55.1967 56.2324 55.8252 51.8382C55.9923 50.6695 55.8621 49.5787 55.4346 48.5657C55.007 47.5527 54.3155 46.7176 53.3601 46.0603C52.4046 45.403 51.2721 44.9833 49.9625 44.8012C48.1383 44.5476 46.4278 44.8342 44.8307 45.661C43.2872 46.4476 42.1111 47.6666 41.3024 49.3182L32.3323 45.997C33.014 44.2324 33.9763 42.6737 35.2193 41.3209C36.4689 39.9214 37.9223 38.7647 39.5795 37.8509C41.2366 36.9371 43.0441 36.3064 45.0019 35.9588C47.0065 35.6178 49.108 35.6001 51.3063 35.9057C53.7384 36.2439 55.93 36.9301 57.881 37.9642C59.8387 38.9515 61.4723 40.2037 62.7818 41.7208C64.1381 43.2443 65.1068 44.9761 65.688 46.9163C66.2758 48.8098 66.4193 50.8083 66.1185 52.9119C65.7842 55.2492 64.9621 57.328 63.6523 59.1483C62.3492 60.9218 60.6319 62.4232 58.5003 63.6525C56.4221 64.8415 54.0166 65.6512 51.2837 66.0817L50.4613 71.8315L41.0601 70.5243ZM43.5043 86.9549C42.3817 86.7988 41.4129 86.4019 40.5978 85.7641C39.7826 85.1263 39.1579 84.3243 38.7237 83.3581C38.3429 82.3516 38.2328 81.2874 38.3932 80.1655C38.5537 79.0436 38.9547 78.0743 39.5962 77.2576C40.2912 76.4008 41.1198 75.777 42.082 75.3863C43.0442 74.9957 44.0866 74.8784 45.2091 75.0345C46.3317 75.1906 47.3005 75.5875 48.1156 76.2253C48.9308 76.8631 49.5287 77.6852 49.9095 78.6917C50.3437 79.6579 50.4806 80.702 50.3202 81.8239C50.1597 82.9458 49.732 83.9352 49.037 84.7921C48.3955 85.6088 47.5936 86.2124 46.6314 86.6031C45.6692 86.9937 44.6268 87.111 43.5043 86.9549Z" fill="black"/>
<path d="M41.0601 70.5243L35.0966 69.6951L34.2442 75.6553L40.2077 76.4845L41.0601 70.5243ZM42.6145 59.6557L42.037 53.668L37.3214 54.1394L36.6511 58.8265L42.6145 59.6557ZM55.4346 48.5657L60.9868 46.2103L60.9868 46.2103L55.4346 48.5657ZM53.3601 46.0603L49.9307 51.0204L49.9307 51.0204L53.3601 46.0603ZM44.8307 45.661L47.5522 51.0193L47.5696 51.0104L47.5869 51.0015L44.8307 45.661ZM41.3024 49.3182L39.1902 54.9616L44.3077 56.8564L46.712 51.9457L41.3024 49.3182ZM32.3323 45.997L26.7133 43.8488L24.5187 49.5295L30.2201 51.6404L32.3323 45.997ZM35.2193 41.3209L39.6505 45.3808L39.6796 45.3491L39.7083 45.317L35.2193 41.3209ZM39.5795 37.8509L42.4756 43.1166L42.4756 43.1166L39.5795 37.8509ZM45.0019 35.9588L44.0121 30.0268L43.9907 30.0304L43.9694 30.0342L45.0019 35.9588ZM57.881 37.9642L55.0419 43.2822L55.0956 43.3106L55.1499 43.338L57.881 37.9642ZM62.7818 41.7208L58.2133 45.6602L58.2432 45.6948L58.2736 45.729L62.7818 41.7208ZM65.688 46.9163L59.9162 48.6611L59.9248 48.6898L59.9337 48.7184L65.688 46.9163ZM63.6523 59.1483L68.5041 62.6971L68.5219 62.6728L68.5394 62.6484L63.6523 59.1483ZM58.5003 63.6525L61.4795 68.8714L61.4885 68.8663L61.4974 68.8612L58.5003 63.6525ZM51.2837 66.0817L50.3671 60.1376L45.9523 60.833L45.3202 65.2525L51.2837 66.0817ZM50.4613 71.8315L49.6089 77.7917L55.5724 78.6209L56.4248 72.6607L50.4613 71.8315ZM40.5978 85.7641L36.8721 90.5067L36.8721 90.5067L40.5978 85.7641ZM38.7237 83.3581L33.0876 85.5038L33.1519 85.6739L33.2265 85.8397L38.7237 83.3581ZM39.5962 77.2576L34.9211 73.4801L34.8915 73.5167L34.8624 73.5537L39.5962 77.2576ZM42.082 75.3863L44.3322 80.9599L42.082 75.3863ZM48.1156 76.2253L51.8413 71.4827L48.1156 76.2253ZM49.9095 78.6917L44.2734 80.8375L44.3377 81.0075L44.4123 81.1733L49.9095 78.6917ZM49.037 84.7921L44.3619 81.0146L44.3323 81.0512L44.3032 81.0882L49.037 84.7921ZM46.6314 86.6031L48.8816 92.1766L48.8816 92.1766L46.6314 86.6031ZM47.0236 71.3535L48.578 60.4849L36.6511 58.8265L35.0966 69.6951L47.0236 71.3535ZM43.1921 65.6434C47.6849 65.1943 51.8248 64.2049 55.1071 62.2626C58.6197 60.1839 61.1743 56.963 61.7887 52.6674L49.8617 51.009C49.8476 51.1075 49.8862 51.3866 48.9952 51.9138C47.874 52.5773 45.7228 53.2996 42.037 53.668L43.1921 65.6434ZM61.7887 52.6674C62.0988 50.4991 61.8685 48.2992 60.9868 46.2103L49.8824 50.9212C49.8815 50.919 49.8786 50.9118 49.8758 50.9009C49.8729 50.8901 49.8716 50.8817 49.8711 50.8781C49.8707 50.8746 49.8718 50.8813 49.8715 50.9005C49.8712 50.92 49.8694 50.9555 49.8617 51.009L61.7887 52.6674ZM60.9868 46.2103C60.09 44.0855 58.6329 42.3684 56.7895 41.1002L49.9307 51.0204C49.945 51.0303 49.955 51.0379 49.9613 51.0428C49.9676 51.0478 49.9705 51.0504 49.9705 51.0504C49.9705 51.0504 49.9682 51.0483 49.9639 51.0439C49.9597 51.0394 49.954 51.0332 49.9475 51.0253C49.9337 51.0087 49.9196 50.989 49.9068 50.9678C49.894 50.9467 49.8862 50.9301 49.8824 50.9212L60.9868 46.2103ZM56.7895 41.1002C54.9649 39.845 52.9215 39.1339 50.8149 38.841L49.11 50.7614C49.6227 50.8327 49.8444 50.9611 49.9307 51.0204L56.7895 41.1002ZM50.8149 38.841C47.7884 38.4202 44.8129 38.9028 42.0746 40.3205L47.5869 51.0015C48.0427 50.7655 48.4883 50.675 49.11 50.7614L50.8149 38.841ZM42.1093 40.3027C39.3222 41.7229 37.2394 43.9404 35.8928 46.6907L46.712 51.9457C46.9827 51.3929 47.2521 51.1722 47.5522 51.0193L42.1093 40.3027ZM43.4146 43.6748L34.4446 40.3536L30.2201 51.6404L39.1902 54.9616L43.4146 43.6748ZM37.9514 48.1452C38.369 47.0642 38.9356 46.1589 39.6505 45.3808L30.7881 37.261C29.0171 39.1885 27.659 41.4007 26.7133 43.8488L37.9514 48.1452ZM39.7083 45.317C40.4986 44.4319 41.4121 43.703 42.4756 43.1166L36.6833 32.5852C34.4325 33.8263 32.4392 35.4108 30.7302 37.3248L39.7083 45.317ZM42.4756 43.1166C43.5223 42.5394 44.6957 42.1211 46.0345 41.8835L43.9694 30.0342C41.3926 30.4916 38.951 31.3348 36.6833 32.5852L42.4756 43.1166ZM45.9918 41.8909C47.3333 41.6627 48.8107 41.6375 50.4538 41.8659L52.1587 29.9455C49.4052 29.5627 46.6798 29.5729 44.0121 30.0268L45.9918 41.8909ZM50.4538 41.8659C52.2675 42.1181 53.7749 42.6106 55.0419 43.2822L60.7201 32.6462C58.0851 31.2496 55.2094 30.3697 52.1587 29.9455L50.4538 41.8659ZM55.1499 43.338C56.4726 44.0051 57.4622 44.7901 58.2133 45.6602L67.3503 37.7813C65.4824 35.6174 63.2049 33.898 60.6121 32.5904L55.1499 43.338ZM58.2736 45.729C59.0531 46.6046 59.588 47.5654 59.9162 48.6611L71.4598 45.1715C70.6257 42.3869 69.2232 39.884 67.2901 37.7125L58.2736 45.729ZM59.9337 48.7184C60.2393 49.7029 60.3387 50.7984 60.155 52.0827L72.0819 53.7411C72.5 50.8182 72.3124 47.9166 71.4423 45.1142L59.9337 48.7184ZM60.155 52.0827C59.9507 53.5109 59.4746 54.6624 58.7653 55.6482L68.5394 62.6484C70.4497 59.9937 71.6176 56.9875 72.0819 53.7411L60.155 52.0827ZM58.8006 55.5995C58.0494 56.6219 56.994 57.584 55.5031 58.4438L61.4974 68.8612C64.2697 67.2625 66.6491 65.2217 68.5041 62.6971L58.8006 55.5995ZM55.521 58.4335C54.1724 59.2051 52.4863 59.8038 50.3671 60.1376L52.2003 72.0258C55.5469 71.4986 58.6719 70.4778 61.4795 68.8714L55.521 58.4335ZM45.3202 65.2525L44.4979 71.0023L56.4248 72.6607L57.2472 66.9109L45.3202 65.2525ZM51.3138 65.8713L41.9125 64.5641L40.2077 76.4845L49.6089 77.7917L51.3138 65.8713ZM44.3567 80.9947C44.304 80.9874 44.2705 80.9797 44.2531 80.9751C44.236 80.9705 44.2325 80.9685 44.2395 80.9714C44.2468 80.9744 44.2602 80.9805 44.2774 80.9904C44.2945 81.0004 44.3103 81.0112 44.3234 81.0215L36.8721 90.5067C38.5965 91.856 40.5807 92.6271 42.6518 92.9151L44.3567 80.9947ZM44.3234 81.0215C44.2947 80.999 44.2836 80.9856 44.2776 80.9779C44.2712 80.9697 44.2502 80.9416 44.221 80.8765L33.2265 85.8397C34.0493 87.6705 35.2731 89.2556 36.8721 90.5067L44.3234 81.0215ZM44.3598 81.2123C44.3513 81.1898 44.3491 81.1777 44.3477 81.164C44.3461 81.1487 44.3421 81.0967 44.3567 80.9947L32.4298 79.3363C32.1333 81.409 32.3298 83.5008 33.0876 85.5038L44.3598 81.2123ZM44.3567 80.9947C44.3642 80.9421 44.3721 80.9085 44.3767 80.8912C44.3813 80.874 44.3834 80.8705 44.3805 80.8776C44.3775 80.8848 44.3713 80.8983 44.3613 80.9154C44.3512 80.9326 44.3403 80.9485 44.33 80.9615L34.8624 73.5537C33.5052 75.2814 32.7258 77.2663 32.4298 79.3363L44.3567 80.9947ZM44.2713 81.0352C44.3005 80.9992 44.3221 80.9767 44.3349 80.9642C44.3476 80.9519 44.3536 80.9475 44.3529 80.948C44.3521 80.9486 44.3482 80.9514 44.342 80.9549C44.3359 80.9584 44.332 80.96 44.3322 80.9599L39.8318 69.8128C37.8636 70.6118 36.2183 71.8807 34.9211 73.4801L44.2713 81.0352ZM44.3322 80.9599C44.3168 80.9662 44.2986 80.9723 44.2793 80.9772C44.26 80.9821 44.2454 80.9843 44.2376 80.9852C44.23 80.986 44.2339 80.985 44.2516 80.9853C44.2696 80.9857 44.304 80.9874 44.3567 80.9947L46.0616 69.0743C43.9904 68.7863 41.8674 68.9864 39.8318 69.8128L44.3322 80.9599ZM44.3567 80.9947C44.4094 81.002 44.4429 81.0098 44.4603 81.0143C44.4774 81.0189 44.4809 81.0209 44.4739 81.018C44.4666 81.0151 44.4532 81.0089 44.436 80.999C44.4189 80.989 44.4031 80.9782 44.39 80.968L51.8413 71.4827C50.1169 70.1334 48.1327 69.3623 46.0616 69.0743L44.3567 80.9947ZM44.39 80.968C44.3811 80.961 44.3661 80.9482 44.3479 80.9294C44.3297 80.9106 44.3124 80.89 44.2973 80.8692C44.2645 80.8241 44.261 80.8047 44.2734 80.8375L55.5456 76.5459C54.7934 74.5578 53.5539 72.8227 51.8413 71.4827L44.39 80.968ZM44.4123 81.1733C44.4033 81.1534 44.393 81.1263 44.3837 81.0939C44.3745 81.0614 44.3683 81.0302 44.3647 81.0028C44.357 80.9439 44.3653 80.9348 44.3567 80.9947L56.2836 82.6531C56.5938 80.4846 56.3387 78.2837 55.4067 76.2101L44.4123 81.1733ZM44.3567 80.9947C44.3522 81.0263 44.3478 81.043 44.3466 81.0474C44.3459 81.0498 44.3458 81.05 44.3464 81.0482C44.347 81.0464 44.3482 81.0433 44.35 81.0392C44.3518 81.0351 44.3538 81.0307 44.3562 81.0262C44.3585 81.0217 44.3607 81.0178 44.3626 81.0146C44.3645 81.0115 44.3658 81.0097 44.366 81.0094C44.3662 81.0092 44.365 81.0109 44.3619 81.0146L53.7121 88.5697C55.1163 86.8383 55.9734 84.8224 56.2836 82.6531L44.3567 80.9947ZM44.3032 81.0882C44.2978 81.0951 44.2986 81.0932 44.3065 81.0855C44.3144 81.0777 44.326 81.0674 44.3404 81.0565C44.3549 81.0457 44.3679 81.0374 44.3776 81.0319C44.3872 81.0265 44.3893 81.0262 44.3812 81.0295L48.8816 92.1766C50.8202 91.3896 52.4784 90.1413 53.7709 88.496L44.3032 81.0882ZM44.3812 81.0295C44.3966 81.0232 44.4148 81.0171 44.4341 81.0122C44.4534 81.0074 44.468 81.0051 44.4758 81.0042C44.4834 81.0034 44.4795 81.0044 44.4618 81.0041C44.4438 81.0038 44.4094 81.002 44.3567 80.9947L42.6518 92.9151C44.723 93.2031 46.846 93.0031 48.8816 92.1766L44.3812 81.0295Z" fill="#CBD5E1"/>
<rect x="2.4436" y="3.47388" width="71.8642" height="105.775" rx="14.6979" transform="matrix(0.985584 0.169184 -0.173873 0.984768 22.0064 0.284029)" fill="#F1F5F9" stroke="#CBD5E1" stroke-width="6.02085"/>
<rect x="3.01042" y="22.0612" width="71.896" height="105.728" rx="14.6979" fill="#F1F5F9" stroke="#CBD5E1" stroke-width="6.02085"/>
<path d="M39.0687 56.2539C34.3552 56.2539 30.5342 60.0215 30.5342 64.6691C30.5342 69.3167 34.3552 73.0843 39.0687 73.0843C43.7822 73.0843 47.6033 69.3167 47.6033 64.6691C47.6033 60.0215 43.7822 56.2539 39.0687 56.2539Z" fill="#CBD5E1"/>
<path d="M29.9652 77.5724C25.2517 77.5724 21.4307 81.34 21.4307 85.9875V88.6541C21.4307 90.3444 22.673 91.7856 24.3649 92.058C34.103 93.6256 44.0345 93.6256 53.7726 92.058C55.4644 91.7856 56.7068 90.3444 56.7068 88.6541V85.9875C56.7068 81.34 52.8857 77.5724 48.1722 77.5724H47.3965C46.9766 77.5724 46.5593 77.6378 46.1602 77.7663L44.1904 78.4005C40.8624 79.472 37.275 79.472 33.9471 78.4005L31.9772 77.7663C31.5781 77.6378 31.1609 77.5724 30.741 77.5724H29.9652Z" fill="#CBD5E1"/>
</svg>
