<svg width="110" height="144" viewBox="0 0 110 144" fill="none" xmlns="http://www.w3.org/2000/svg">
<path d="M13.0789 139.792C17.0519 142.195 21.7075 143.574 26.6908 143.574H45.8321C46.0505 143.601 46.1598 143.614 46.1598 143.614L46.6922 143.574H81.3568C96.9893 143.574 109.659 130.904 109.659 115.271V28.3026C109.659 12.6701 96.9893 0.000244141 81.3568 0.000244141H28.6432C13.0107 0.000244141 0.34082 12.6701 0.34082 28.3026V117.224C0.34082 126.139 4.76434 134.003 11.5361 138.781L13.0789 139.792Z" fill="#E1E9F2"/>
<path d="M61.546 117.02L78.4755 103.013C79.1991 102.412 80.264 102.412 80.974 103.026L98.4086 117.853C98.4632 117.239 98.5042 116.611 98.5042 115.969V32.7824C98.5042 20.5358 88.5786 10.6238 76.3456 10.6238H33.6669C21.4203 10.6238 11.5083 20.5495 11.5083 32.7824V115.969C11.5083 115.983 11.5083 115.996 11.5083 116.01C11.5083 117.758 13.7064 118.536 14.8669 117.239L35.3735 94.3567C36.138 93.4966 37.476 93.4966 38.2542 94.3431L58.8837 116.829C59.5799 117.594 60.7541 117.676 61.546 117.02Z" fill="#C7D4DF"/>
<path d="M57.315 73.3955C66.5594 73.3955 74.0534 65.9015 74.0534 56.6571C74.0534 47.4128 66.5594 39.9188 57.315 39.9188C48.0707 39.9188 40.5767 47.4128 40.5767 56.6571C40.5767 65.9015 48.0707 73.3955 57.315 73.3955Z" fill="#E1E9F2"/>
</svg>
