<svg width="110" height="144" viewBox="0 0 110 144" fill="none" xmlns="http://www.w3.org/2000/svg">
<path d="M34.9835 0.224578L10.9536 4.5137C3.82918 5.78155 -0.816531 12.0669 0.593503 18.541L8.5639 55.3762C9.36539 59.0718 12.0815 61.9717 15.5992 63.3879C15.8515 63.6577 16.0594 63.8061 16.1929 63.7386C16.2226 63.7251 16.2968 63.6982 16.4007 63.6847C18.4341 64.3591 20.6753 64.5479 22.9462 64.1433L31.6736 62.5787C31.7775 62.5787 31.8221 62.5652 31.8221 62.5652L32.0595 62.4977L47.8667 59.6788C54.9911 58.4109 59.6368 52.1256 58.2268 45.6515L50.4345 9.62557C49.0244 3.16492 42.1078 -1.04328 34.9835 0.224578Z" fill="#E1E9F2"/>
<path d="M36.4388 50.3057L42.8953 43.1167C43.1773 42.8065 43.6523 42.7255 44.0382 42.9144L53.3147 47.6351C53.285 47.3788 53.2405 47.1091 53.1811 46.8528L45.7302 12.3915C44.6319 7.32005 39.2144 4.01554 33.6484 5.01364L14.19 8.49349C8.60924 9.49159 4.97283 14.4146 6.07117 19.4726L13.5221 53.9339V53.9474C13.6853 54.6622 14.754 54.8106 15.1696 54.1767L22.4573 43.0223C22.7244 42.6041 23.3329 42.4962 23.7634 42.7795L35.1772 50.4136C35.5928 50.7103 36.1271 50.6429 36.4388 50.3057Z" fill="#C7D4DF"/>
<path d="M24.5492 60.6754L45.774 56.8853C50.4048 56.0625 53.5811 52.259 53.3436 48.0912C53.3288 47.8215 53.1507 47.5652 52.8835 47.4303L44.0374 42.9254C43.6515 42.7366 43.1765 42.8175 42.8945 43.1277L36.4381 50.3167C36.1264 50.6539 35.5921 50.7214 35.2062 50.4516L23.7923 42.8175C23.3619 42.5343 22.7533 42.6422 22.4862 43.0603L14.4267 55.3881C14.2783 55.6174 14.2486 55.9142 14.3822 56.1569C16.2226 59.4884 20.334 61.4307 24.5492 60.6754Z" fill="#E1E9F2"/>
<path d="M28.0518 29.8034C32.3472 29.8034 35.8293 26.6392 35.8293 22.7358C35.8293 18.8325 32.3472 15.6682 28.0518 15.6682C23.7565 15.6682 20.2744 18.8325 20.2744 22.7358C20.2744 26.6392 23.7565 29.8034 28.0518 29.8034Z" fill="#E1E9F2"/>
<path d="M100.215 7.40162L76.7045 1.12979C69.7434 -0.731523 62.4261 2.8967 60.3927 9.23596L48.7562 45.2619C47.5836 48.8766 48.5335 52.5858 50.9232 55.3238C51.0122 55.6745 51.1161 55.8903 51.2645 55.8768C51.3091 55.8768 51.3833 55.8903 51.4723 55.9172C52.9269 57.3604 54.8268 58.4799 57.0531 59.0734L65.5875 61.3528C65.6766 61.3933 65.7359 61.4068 65.7359 61.4068L65.9734 61.4472L81.4244 65.5745C88.3855 67.4358 95.7029 63.8076 97.7363 57.4683L109.12 22.2382C111.169 15.8989 107.191 9.24945 100.215 7.40162Z" fill="#C7D4DF"/>
<path d="M60.2758 56.6568L81.0404 62.1868C85.5822 63.4007 90.317 61.3506 92.2168 57.5605C92.3356 57.3042 92.3058 57.021 92.1426 56.7917L86.5767 49.0767C86.3392 48.7395 85.8642 48.6181 85.4635 48.7664L76.083 52.4351C75.6378 52.6105 75.1331 52.4351 74.9105 52.044L68.6618 40.4849C68.4243 40.0533 67.8306 39.8915 67.3705 40.1477L53.9529 47.7009C53.7006 47.8493 53.5225 48.092 53.5225 48.3753C53.478 52.0979 56.1348 55.5508 60.2758 56.6568Z" fill="#C7D4DF"/>
<path d="M84.4674 33.3914C88.7628 33.3914 92.2449 30.2271 92.2449 26.3238C92.2449 22.4204 88.7628 19.2562 84.4674 19.2562C80.1721 19.2562 76.6899 22.4204 76.6899 26.3238C76.6899 30.2271 80.1721 33.3914 84.4674 33.3914Z" fill="#C7D4DF"/>
<path fill-rule="evenodd" clip-rule="evenodd" d="M28.0969 116.436H73.3961C74.6132 116.962 78.116 118.944 77.7004 123.894H25.0839C23.6887 123.894 22.5755 124.92 22.5755 126.174C22.5755 127.428 23.7036 128.453 25.0839 128.453H79.8674C81.04 128.453 82.0641 127.712 82.3164 126.659C84.1124 119.282 80.194 114.871 76.7654 112.902L84.3053 80.3289L100.825 74.1785C102.101 73.7064 102.725 72.3711 102.19 71.1977C101.671 70.0377 100.202 69.4712 98.9103 69.9568L81.1439 76.5658C80.5947 76.7681 80.1494 77.1458 79.8822 77.6179H17.4401H17.351H12.4233C10.9391 77.6179 9.73682 78.6429 9.73682 79.8973C9.73682 81.1517 10.9391 82.1767 12.4233 82.1767H15.5105L25.6627 114.763C25.9744 115.761 26.9689 116.436 28.0969 116.436ZM71.8673 111.877H67.3404L67.9935 107.682H72.8469L71.8673 111.877ZM73.693 104.027H68.5575L69.2847 99.3197H74.7913L73.693 104.027ZM75.6225 95.6645H69.8339L70.5612 90.9573H76.706L75.6225 95.6645ZM77.5668 87.3021H71.1401L71.9267 82.1902H78.7542L77.5668 87.3021ZM67.8599 82.1902L67.0732 87.3021H58.6872L58.9099 82.1902H67.8599ZM54.8875 82.1902L54.6649 87.3021H46.7836L46.3086 82.1902H54.8875ZM42.2566 82.1902L42.7316 87.3021H34.7464L33.9003 82.1902H42.2566ZM29.8483 82.1902L30.6944 87.3021H22.338L20.7499 82.1902H29.8483ZM38.8132 111.877L38.1156 107.682H44.6463L45.0322 111.877H38.8132ZM37.5219 104.027L36.7501 99.3197H43.8745L44.3197 104.027H37.5219ZM36.1415 95.6645L35.3697 90.9573H43.0878L43.5331 95.6645H36.1415ZM31.288 90.9438L32.0598 95.651H24.9355L23.4661 90.9438H31.288ZM32.6684 99.3197L33.4402 104.027H27.5329L26.0635 99.3197H32.6684ZM34.0488 107.682L34.7464 111.877H29.9968L28.6906 107.682H34.0488ZM49.0693 111.877L48.6686 107.682H53.7744L53.5963 111.877H49.0693ZM48.342 104.027L47.8968 99.3197H54.1454L53.9377 104.027H48.342ZM47.5554 95.6645L47.1101 90.9573H54.5017L54.2939 95.6645H47.5554ZM57.6334 111.877L57.8115 107.682H63.9266L63.2884 111.877H57.6334ZM57.9748 104.027L58.1826 99.3197H65.2327L64.5055 104.027H57.9748ZM58.331 95.6645L58.5388 90.9573H66.5092L65.7819 95.6645H58.331Z" fill="#C7D4DF"/>
<path fill-rule="evenodd" clip-rule="evenodd" d="M66.0337 136.843C66.0337 140.579 69.3732 143.613 73.4846 143.613C77.596 143.613 80.9355 140.579 80.9355 136.843C80.9355 133.106 77.596 130.072 73.4846 130.072C69.3732 130.058 66.0337 133.093 66.0337 136.843Z" fill="#C7D4DF"/>
<path fill-rule="evenodd" clip-rule="evenodd" d="M69.7153 136.843C69.7153 138.731 71.4073 140.269 73.4853 140.269C75.5632 140.269 77.2553 138.731 77.2553 136.843C77.2553 134.955 75.5632 133.417 73.4853 133.417C71.4073 133.417 69.7153 134.941 69.7153 136.843Z" fill="#C7D4DF"/>
<path fill-rule="evenodd" clip-rule="evenodd" d="M26.2715 136.843C26.2715 140.579 29.6111 143.613 33.7224 143.613C37.8338 143.613 41.1733 140.579 41.1733 136.843C41.1733 133.106 37.8338 130.072 33.7224 130.072C29.6111 130.058 26.2715 133.093 26.2715 136.843Z" fill="#C7D4DF"/>
<path fill-rule="evenodd" clip-rule="evenodd" d="M29.9531 136.843C29.9531 138.731 31.6452 140.269 33.7231 140.269C35.8011 140.269 37.4931 138.731 37.4931 136.843C37.4931 134.955 35.8011 133.417 33.7231 133.417C31.6452 133.417 29.9531 134.941 29.9531 136.843Z" fill="#C7D4DF"/>
</svg>
