<svg width="117" height="155" viewBox="0 0 117 155" fill="none" xmlns="http://www.w3.org/2000/svg">
<path d="M85.4875 15.6986H38.1463C24.1105 15.6986 12.7412 27.4964 12.7412 42.0325V124.783C12.7412 133.075 16.7161 140.407 22.7897 144.847C23.16 145.538 23.4933 145.922 23.7525 145.833C23.8266 145.807 23.9624 145.794 24.1599 145.794C27.7275 148.033 31.9123 149.326 36.381 149.326H53.5646C53.7621 149.351 53.8608 149.364 53.8608 149.364L54.3423 149.326H85.4752C99.5109 149.326 110.88 137.528 110.88 122.992V42.0325C110.893 27.4964 99.5232 15.6986 85.4875 15.6986Z" fill="#E1E9F2"/>
<path d="M80.5485 28.2545H43.0829C31.9728 28.2545 22.9736 37.8258 22.9736 49.6492V116.853C22.9736 123.584 26.1215 129.534 30.9359 133.142C31.2198 133.705 31.4914 134.012 31.7012 133.936C31.7629 133.91 31.874 133.91 32.0222 133.897C34.8491 135.714 38.1574 136.763 41.7003 136.763H55.304C55.4521 136.789 55.5385 136.802 55.5385 136.802L55.9212 136.763H80.5609C91.671 136.763 100.67 127.192 100.67 115.369V49.6364C100.658 37.8386 91.6586 28.2545 80.5485 28.2545Z" fill="#C7D4DF"/>
<path d="M62.7843 109.685C65.2114 109.685 67.1789 107.645 67.1789 105.13C67.1789 102.614 65.2114 100.574 62.7843 100.574C60.3572 100.574 58.3896 102.614 58.3896 105.13C58.3896 107.645 60.3572 109.685 62.7843 109.685Z" fill="#E1E9F2"/>
<path d="M77.6236 62.9895C76.3398 60.6606 74.5128 58.818 72.155 57.4617C69.7972 56.1053 67.0814 55.4271 63.9953 55.4271C60.6869 55.4271 57.786 56.2333 55.2924 57.8583C52.8111 59.4834 50.9101 61.518 49.6139 63.9876C48.3177 66.4572 47.6758 68.8884 47.6758 71.294C47.6758 72.4584 48.0832 73.5461 48.8979 74.5442C49.7126 75.5422 50.7249 76.0413 51.91 76.0413C53.9345 76.0413 55.3047 74.6081 56.0207 71.7546C56.2799 70.8333 56.5638 70.0272 56.8601 69.2595C57.4403 65.7534 60.3783 63.0663 63.9212 63.0663C67.8961 63.0663 71.1057 66.406 71.1057 70.5134C71.1057 73.0086 69.9083 75.1967 68.0936 76.5531C67.5011 77.2313 66.6864 78.0886 65.6741 79.1635C64.1187 80.7885 62.8966 82.1833 61.9831 83.3605C61.0696 84.5377 60.3413 85.9069 59.7858 87.468C59.2303 89.0291 58.9587 90.8717 58.9587 92.9958C58.9587 94.6976 59.3414 95.9772 60.0944 96.8345C60.8474 97.6919 61.7732 98.1269 62.8843 98.1269C65.0075 98.1269 66.279 96.809 66.674 94.173C66.9086 92.9318 67.0814 92.0617 67.2048 91.5754C67.3159 91.0764 67.4888 90.5902 67.6986 90.0911C67.9085 89.5921 68.2294 89.0547 68.6738 88.4533C69.1059 87.8646 69.6861 87.1737 70.4144 86.3803C73.0315 83.5908 74.8338 81.6203 75.846 80.443C76.8583 79.2658 77.7224 77.8711 78.463 76.246C79.1914 74.6209 79.5617 72.7399 79.5617 70.5902C79.5494 67.8391 78.9075 65.3183 77.6236 62.9895Z" fill="#E1E9F2"/>
<path d="M21.5669 26.1066L15.0613 25.262L12.0369 19.2352C11.8518 18.8641 11.4814 18.6338 11.0741 18.6338C10.6667 18.6466 10.3087 18.8897 10.1359 19.2736L7.35836 25.4284L0.889823 26.5416C0.482453 26.6056 0.161505 26.8999 0.050404 27.3094C-0.0730413 27.7189 0.0380474 28.1411 0.346661 28.4354L5.13634 33.0803L4.16112 39.7981C4.09939 40.2204 4.27222 40.6299 4.60552 40.873C4.766 40.9882 4.96351 41.0521 5.14868 41.0649C5.34619 41.0777 5.54371 41.0266 5.72888 40.9242L11.4691 37.6356L17.3327 40.6683C17.7031 40.8602 18.1228 40.8218 18.4561 40.5659C18.777 40.31 18.9375 39.8877 18.8635 39.4782L17.629 32.7988L22.2335 27.962C22.5174 27.6549 22.6162 27.2198 22.4804 26.8231C22.3076 26.4393 21.9743 26.1578 21.5669 26.1066Z" fill="#C7D4DF"/>
<path d="M49.3535 7.10152L43.9589 6.41055L41.453 1.40736C41.2925 1.10026 40.9839 0.908325 40.6506 0.908325C40.3173 0.921121 40.0087 1.11306 39.8729 1.43296L37.5645 6.5385L32.1946 7.4598C31.8613 7.51099 31.5897 7.7669 31.491 8.0996C31.3922 8.43229 31.491 8.79059 31.7379 9.03371L35.7128 12.8853L34.8981 18.4643C34.8487 18.8097 34.9845 19.1552 35.2684 19.3472C35.4042 19.4495 35.5647 19.5007 35.7251 19.5135C35.8856 19.5263 36.0584 19.4879 36.2066 19.3983L40.9716 16.6728L45.8353 19.1936C46.1439 19.3472 46.4896 19.3216 46.7611 19.104C47.0327 18.8865 47.1562 18.541 47.0945 18.1955L46.0699 12.6549L49.8843 8.63702C50.1189 8.3811 50.2053 8.02283 50.0942 7.69014C49.9584 7.38304 49.6868 7.1527 49.3535 7.10152Z" fill="#C7D4DF"/>
<path d="M116.063 139.463L109.483 138.618L106.434 132.527C106.249 132.143 105.866 131.913 105.459 131.926C105.052 131.939 104.681 132.182 104.508 132.566L101.694 138.784L95.1512 139.911C94.7438 139.975 94.4229 140.282 94.2994 140.691C94.176 141.101 94.2871 141.536 94.5957 141.83L99.4348 146.526L98.4472 153.321C98.3855 153.743 98.5583 154.152 98.8916 154.408C99.0644 154.523 99.2496 154.6 99.4471 154.613C99.6446 154.626 99.8545 154.575 100.027 154.472L105.829 151.158L111.755 154.229C112.125 154.421 112.557 154.383 112.89 154.114C113.224 153.858 113.372 153.436 113.298 153.014L112.039 146.27L116.692 141.369C116.976 141.062 117.075 140.627 116.939 140.218C116.816 139.795 116.47 139.514 116.063 139.463Z" fill="#C7D4DF"/>
</svg>
