<svg width="158" height="144" viewBox="0 0 158 144" fill="none" xmlns="http://www.w3.org/2000/svg">
<path d="M48.3115 38.4686L16.8717 46.3001C7.54776 48.6169 0.000488281 58.0545 0.000488281 67.3784V120.394C0.000488281 125.71 2.64416 129.746 6.68073 131.58C6.92236 131.964 7.14979 132.148 7.32034 132.049C7.36298 132.02 7.46246 131.992 7.59038 131.949C9.964 132.788 12.7356 132.93 15.7062 132.177L27.1194 129.334C27.2474 129.32 27.3184 129.306 27.3184 129.306L27.6311 129.206L48.2973 124.047C57.6212 121.73 65.1684 112.292 65.1684 102.968V51.1184C65.1826 41.8087 57.6354 36.1376 48.3115 38.4686Z" fill="#E1E9F2"/>
<path d="M36.4998 111.17L46.5912 100.297C47.0318 99.8281 47.6572 99.6717 48.0836 99.9418L58.4735 106.196C58.5019 105.812 58.5304 105.442 58.5304 105.059V55.4684C58.5304 48.177 52.6176 43.7283 45.312 45.5476L19.8702 51.8867C12.5788 53.706 6.65186 61.0969 6.65186 68.3883V117.978C6.65186 117.993 6.65186 117.993 6.65186 118.007C6.65186 119.044 7.95946 119.187 8.65591 118.234L20.8793 101.548C21.3342 100.923 22.1301 100.724 22.5992 101.107L34.8937 111.455C35.32 111.81 36.0307 111.682 36.4998 111.17Z" fill="#C7D4DF"/>
<path d="M18.7183 127.028L46.4768 120.106C52.5459 118.599 57.5632 112.857 58.4018 106.817C58.4586 106.419 58.3023 106.078 58.0038 105.893L48.0829 99.9232C47.6565 99.6673 47.0311 99.8237 46.5905 100.278L36.4991 111.152C36.0301 111.663 35.3194 111.791 34.9072 111.436L22.6127 101.089C22.1437 100.705 21.3477 100.904 20.8929 101.529L7.37608 119.992C7.12024 120.348 7.00654 120.774 7.12025 121.115C8.54158 125.848 13.1893 128.407 18.7183 127.028Z" fill="#E1E9F2"/>
<path d="M39.8761 79.2387C44.0067 74.5608 44.3978 68.1571 40.7496 64.9357C37.1014 61.7144 30.7954 62.8951 26.6647 67.573C22.5341 72.251 22.143 78.6547 25.7912 81.876C29.4394 85.0974 35.7454 83.9166 39.8761 79.2387Z" fill="#E1E9F2"/>
<path d="M140.143 11.5189L108.703 19.3504C99.3788 21.6672 91.8315 31.1048 91.8315 40.4287V93.4442C91.8315 98.76 94.4752 102.797 98.5118 104.63C98.7534 105.014 98.9808 105.199 99.1514 105.099C99.194 105.071 99.2935 105.042 99.4214 105C101.795 105.838 104.567 105.98 107.537 105.227L118.95 102.384C119.078 102.37 119.149 102.356 119.149 102.356L119.462 102.256L140.128 97.0971C149.452 94.7803 156.999 85.3427 156.999 76.0188V24.1687C157.014 14.8732 149.452 9.20209 140.143 11.5189Z" stroke="#C7D4DF" stroke-width="1.42133" stroke-miterlimit="10" stroke-dasharray="5.69 5.69"/>
<path d="M128.331 84.2206L138.422 73.3474C138.863 72.8784 139.488 72.722 139.915 72.9921L150.305 79.2459C150.333 78.8622 150.361 78.4926 150.361 78.1089V28.5187C150.361 21.2273 144.449 16.7786 137.143 18.5979L111.701 24.937C104.41 26.7563 98.4829 34.1472 98.4829 41.4386V91.0288C98.4829 91.043 98.4829 91.043 98.4829 91.0572C98.4829 92.0947 99.7905 92.2369 100.487 91.2846L112.71 74.5982C113.165 73.9728 113.961 73.7738 114.43 74.1576L126.725 84.5049C127.151 84.8602 127.848 84.7323 128.331 84.2206Z" stroke="#C7D4DF" stroke-width="1.42133" stroke-miterlimit="10" stroke-dasharray="5.69 5.69"/>
<path d="M110.536 100.095L138.294 93.173C144.363 91.6664 149.381 85.9243 150.219 79.8836C150.276 79.4856 150.12 79.1445 149.821 78.9597L139.9 72.9902C139.474 72.7343 138.849 72.8907 138.408 73.3455L128.316 84.2187C127.847 84.7303 127.137 84.8583 126.725 84.5029L114.43 74.1557C113.961 73.7719 113.165 73.9709 112.71 74.5963L99.1935 93.0593C98.9376 93.4147 98.8239 93.8411 98.9376 94.1822C100.359 98.901 105.021 101.459 110.536 100.095Z" stroke="#C7D4DF" stroke-width="1.42133" stroke-miterlimit="10" stroke-dasharray="5.69 5.69"/>
<path d="M131.69 52.2946C135.821 47.6167 136.212 41.213 132.564 37.9916C128.916 34.7703 122.61 35.951 118.479 40.629C114.349 45.3069 113.957 51.7106 117.606 54.932C121.254 58.1533 127.56 56.9725 131.69 52.2946Z" stroke="#C7D4DF" stroke-width="1.42133" stroke-miterlimit="10" stroke-dasharray="5.69 5.69"/>
<path d="M85.3651 71.1037L78.6848 63.6843V67.7067L70.1284 69.6823V79.8449L78.6848 77.8692V81.6215L85.3651 71.1037Z" fill="#C7D4DF"/>
</svg>
