<svg width="37" height="41" viewBox="0 0 37 41" fill="none" xmlns="http://www.w3.org/2000/svg">
<path fill-rule="evenodd" clip-rule="evenodd" d="M1.79032 29.8387C2.77909 29.8387 3.58065 30.6403 3.58065 31.629V36.4032C3.58065 36.7328 3.84783 37 4.17742 37H32.8226C33.1522 37 33.4194 36.7328 33.4194 36.4032V31.629C33.4194 30.6403 34.2209 29.8387 35.2097 29.8387C36.1984 29.8387 37 30.6403 37 31.629V36.4032C37 38.7104 35.1297 40.5807 32.8226 40.5807H4.17742C1.8703 40.5807 0 38.7104 0 36.4032V31.629C0 30.6403 0.801555 29.8387 1.79032 29.8387Z" fill="#94A3B8"/>
<path d="M15.4874 0C14.2595 0 13.2352 0.938421 13.128 2.16163C12.7612 6.34553 12.6965 10.55 12.9342 14.7423C12.3446 14.7749 11.7553 14.8127 11.1662 14.8556L7.6106 15.1148C6.23969 15.2147 5.47334 16.7433 6.21345 17.9016C8.74864 21.8692 12.0153 25.3184 15.8393 28.0653L17.2638 29.0886C18.0026 29.6193 18.9977 29.6193 19.7365 29.0886L21.161 28.0653C24.985 25.3184 28.2516 21.8692 30.7868 17.9016C31.5269 16.7433 30.7606 15.2147 29.3897 15.1148L25.8341 14.8556C25.245 14.8127 24.6556 14.7749 24.0661 14.7423C24.3037 10.55 24.2391 6.34552 23.8723 2.16162C23.7651 0.938417 22.7408 0 21.5129 0H15.4874Z" fill="#94A3B8"/>
</svg>
