<svg width="59" height="48" viewBox="0 0 59 48" fill="none" xmlns="http://www.w3.org/2000/svg">
<path fill-rule="evenodd" clip-rule="evenodd" d="M14.6708 0.643326C24.5383 -0.214442 34.4617 -0.214442 44.3292 0.643325L49.0616 1.0547C53.5897 1.44832 57.258 4.89406 57.9339 9.38873C59.3554 18.8416 59.3554 28.4539 57.9339 37.9068C57.8095 38.7337 57.5839 39.5252 57.2703 40.2686C57.0623 40.7616 56.4207 40.8363 56.0608 40.4405L42.2062 25.2004C41.5802 24.5119 40.6069 24.2575 39.7241 24.5518L31.7937 27.1952L20.2892 14.2527C19.8592 13.7689 19.2487 13.4839 18.6017 13.4649C17.9548 13.4459 17.3286 13.6946 16.8709 14.1522L1.47247 29.5507C0.998553 30.0246 0.190295 29.7229 0.15251 29.0538C-0.217982 22.4926 0.0865529 15.9028 1.06612 9.38873C1.74201 4.89406 5.41031 1.44832 9.93844 1.0547L14.6708 0.643326ZM35.767 14.2473C35.767 11.6514 37.8714 9.54702 40.4672 9.54702C43.0631 9.54702 45.1675 11.6514 45.1675 14.2473C45.1675 16.8432 43.0631 18.9475 40.4672 18.9475C37.8714 18.9475 35.767 16.8432 35.767 14.2473Z" fill="#CBD5E1"/>
<path d="M1.17726 36.493C1.00381 36.6665 0.921418 36.9112 0.955969 37.1541C0.991684 37.4051 1.0284 37.656 1.06612 37.9068C1.74201 42.4015 5.41031 45.8472 9.93844 46.2409L14.6708 46.6522C24.5383 47.51 34.4617 47.51 44.3293 46.6522L49.0616 46.2409C50.3922 46.1252 51.6485 45.746 52.7765 45.1541C53.2039 44.9298 53.2759 44.3646 52.9512 44.0074L40.1013 29.8725C39.8927 29.643 39.5682 29.5582 39.274 29.6563L31.8099 32.1443C30.918 32.4416 29.9348 32.1788 29.3102 31.4761L18.984 19.8592C18.6846 19.5223 18.1633 19.507 17.8446 19.8257L1.17726 36.493Z" fill="#CBD5E1"/>
</svg>
