<svg width="118" height="155" viewBox="0 0 118 155" fill="none" xmlns="http://www.w3.org/2000/svg">
<path fill-rule="evenodd" clip-rule="evenodd" d="M0.000976562 121.786C4.53241 131.095 9.07878 140.42 13.6252 149.729C15.3749 153.314 19.3231 155.002 22.8825 153.668C41.4419 146.674 55.9784 155.227 76.5718 152.157C77.4691 152.028 78.3364 151.706 79.1291 151.24C90.4651 144.568 101.831 137.88 113.197 131.224C115.844 129.664 117.609 126.593 117.28 123.362C117.026 120.789 115.545 118.94 112.734 117.895C109.608 116.722 106.153 117.268 103.267 119.005C96.1332 123.297 89.0145 127.606 81.8659 131.883C80.3405 132.799 78.5608 133.137 76.841 132.864C68.825 131.545 60.8239 130.227 52.8229 128.908C50.8637 128.587 49.3981 126.706 49.5925 124.584C50.5646 114.069 63.5906 122.204 73.476 123.249C75.7193 123.49 77.9775 122.751 79.5927 121.063C81.9407 118.587 82.0304 115.95 79.2637 113.056C78.2169 111.963 76.8709 111.223 75.4352 110.902C62.9924 108.104 50.5796 105.323 38.1518 102.525C36.3721 102.123 34.5027 102.397 32.8875 103.313C21.9104 109.422 10.9482 115.596 0.000976562 121.786Z" fill="#C7D4DF"/>
<path d="M73.4913 6.32229L44.7623 12.3835C36.2528 14.1842 30.7044 23.0591 32.3794 32.2072L41.9058 84.2825C42.8629 89.5077 46.1083 93.6075 50.3107 95.6172C50.6098 96.0031 50.864 96.2121 51.0136 96.1156C51.0584 96.0834 51.1332 96.0673 51.2528 96.0352C53.6756 96.9838 56.3676 97.2571 59.0745 96.6783L69.4982 94.4757C69.6179 94.4757 69.6777 94.4596 69.6777 94.4596L69.9618 94.3792L88.8503 90.392C97.3598 88.5913 102.908 79.7165 101.233 70.5683L91.9161 19.6345C90.2561 10.4703 82.0009 4.5216 73.4913 6.32229Z" fill="#E1E9F2"/>
<path d="M75.2242 77.109L82.9411 66.948C83.2701 66.5139 83.8534 66.4013 84.302 66.6746L95.3838 73.3468C95.3539 72.977 95.2941 72.6073 95.2343 72.2375L86.3359 23.5224C85.0199 16.3518 78.5592 11.6893 71.8892 13.0881L48.6337 18.0078C41.9637 19.4226 37.6267 26.3681 38.9278 33.5387L47.8262 82.2538C47.8262 82.2699 47.8262 82.2699 47.8262 82.286C48.0206 83.2989 49.2918 83.5079 49.7853 82.6236L58.5043 66.8676C58.8333 66.2727 59.5661 66.1119 60.0745 66.5299L73.7137 77.318C74.2072 77.6878 74.8503 77.5913 75.2242 77.109Z" fill="#C7D4DF"/>
<path d="M61.018 91.7722L86.3821 86.4183C91.9305 85.2447 95.6992 79.8747 95.43 73.9903C95.415 73.6045 95.1907 73.2508 94.8766 73.0579L84.3033 66.6751C83.8397 66.4018 83.2713 66.5143 82.9423 66.9484L75.2254 77.1094C74.8665 77.5917 74.2085 77.6721 73.7449 77.3024L60.1057 66.5143C59.5972 66.1123 58.8645 66.2731 58.5354 66.8519L48.8893 84.28C48.7098 84.6176 48.6799 85.0357 48.8444 85.3733C51.0578 90.084 55.9781 92.8333 61.018 91.7722Z" fill="#E1E9F2"/>
<path d="M65.1924 48.1263C70.3216 48.1263 74.4796 43.6563 74.4796 38.1421C74.4796 32.628 70.3216 28.158 65.1924 28.158C60.0632 28.158 55.9053 32.628 55.9053 38.1421C55.9053 43.6563 60.0632 48.1263 65.1924 48.1263Z" fill="#E1E9F2"/>
</svg>
