<svg width="127" height="144" viewBox="0 0 127 144" fill="none" xmlns="http://www.w3.org/2000/svg">
<path d="M34.3045 115.784C51.4152 115.784 65.2862 101.913 65.2862 84.8024C65.2862 67.6917 51.4152 53.8207 34.3045 53.8207C17.1938 53.8207 3.32275 67.6917 3.32275 84.8024C3.32275 101.913 17.1938 115.784 34.3045 115.784Z" fill="#E1E9F2"/>
<path d="M48.803 115.623C31.8146 123.626 11.4823 116.305 3.47936 99.3004C-4.5236 82.2961 2.79792 61.9798 19.8022 53.9768C36.7907 45.9738 57.1229 53.2953 65.1259 70.2996C73.113 87.3039 65.7915 107.62 48.803 115.623ZM22.4329 59.5551C8.51884 66.1001 2.51266 82.7557 9.0735 96.6856C15.6343 110.616 32.2742 116.606 46.1882 110.045C60.1023 103.5 66.1084 86.8444 59.5476 72.9303C52.9868 59.0163 36.3469 53.0101 22.4329 59.5551Z" fill="#C7D4DF"/>
<path d="M16.253 68.1535C12.8141 71.9886 10.7064 76.8379 10.3102 82.0042C9.91406 87.1546 11.1819 92.3209 13.971 96.6631C16.7602 101.021 20.9122 104.381 25.7298 106.172C30.5633 107.962 35.9039 108.137 40.8166 106.647C41.815 106.346 42.7341 105.759 43.4314 104.983L43.4948 104.92C44.0177 104.349 44.3981 103.683 44.6675 102.954C44.9211 102.226 45.0478 101.481 44.9844 100.688C44.9369 99.9276 44.7309 99.1669 44.4139 98.4855C44.0811 97.7882 43.6057 97.1701 43.0194 96.6789L34.9689 89.4524C34.9213 89.4049 34.8579 89.3891 34.8262 89.4049C34.7628 89.4049 34.7153 89.4366 34.6678 89.4524L32.3065 92.0831C32.0371 92.4159 31.6567 92.7012 31.2764 92.923C30.8961 93.129 30.4365 93.24 29.9928 93.2875C29.5332 93.3192 29.0895 93.2558 28.6774 93.1132C28.2654 92.9706 27.8534 92.7487 27.5364 92.4476C27.2036 92.1624 26.9342 91.7662 26.7599 91.3858C26.5539 90.9896 26.4429 90.5459 26.4429 90.0864C26.4271 89.6268 26.4905 89.1989 26.6648 88.771C26.8391 88.359 27.0768 87.9628 27.3938 87.6617L36.8706 77.1073C37.14 76.7745 37.5203 76.4893 37.9006 76.2674C38.281 76.0614 38.7406 75.9504 39.1843 75.9029C39.6439 75.8712 40.0876 75.9346 40.4996 76.0772C40.9116 76.2198 41.3237 76.4417 41.6406 76.7428C41.9734 77.0281 42.2428 77.4243 42.4172 77.8046C42.6232 78.2008 42.7341 78.6445 42.7341 79.1041C42.75 79.5636 42.6866 79.9915 42.5122 80.4194C42.3379 80.8473 42.1002 81.2276 41.7833 81.5287L39.422 84.1594C39.3744 84.2069 39.3586 84.2703 39.3903 84.3179C39.3903 84.3813 39.422 84.4288 39.4537 84.4605L47.5042 91.6869C48.661 92.7012 50.1982 93.24 51.7513 93.1766C53.3043 93.0974 54.7623 92.4159 55.7924 91.2591L55.8558 91.1957C56.5531 90.4191 57.0285 89.4524 57.2187 88.4065C58.1695 83.3195 57.4405 78.074 55.1427 73.4624C52.8289 68.8349 49.0731 65.0949 44.4298 62.7812C39.7865 60.4992 34.541 59.7544 29.4698 60.7052C24.3194 61.7194 19.7078 64.3342 16.253 68.1535ZM26.1894 99.5948C25.6823 100.149 25.0484 100.562 24.3194 100.72C23.5904 100.878 22.8297 100.878 22.1166 100.609C21.4035 100.34 20.7854 99.9118 20.3575 99.3095C19.9138 98.7073 19.6444 97.9942 19.5968 97.2494C19.5652 96.5204 19.7395 95.7439 20.1198 95.11C20.5002 94.4761 21.0548 93.9373 21.7363 93.6203C22.4177 93.3034 23.1625 93.1925 23.9074 93.3034C24.6522 93.4143 25.3495 93.7313 25.9041 94.2225C26.649 94.8881 27.0768 95.839 27.1561 96.8215C27.2036 97.8516 26.8391 98.85 26.1894 99.5948ZM28.9785 79.5953C28.202 80.4669 27.1878 81.0692 26.0784 81.3544C24.9533 81.6397 23.7647 81.5921 22.6712 81.2118C21.5778 80.8156 20.6111 80.1183 19.9138 79.1833C19.2165 78.2483 18.8045 77.1549 18.7411 75.9663C18.6618 74.8094 18.9629 73.6684 19.5493 72.67C20.1357 71.6716 21.0231 70.8476 22.069 70.3722C23.0991 69.8809 24.3035 69.6907 25.4287 69.865C26.5697 70.0235 27.6473 70.5464 28.519 71.323C29.66 72.353 30.3573 73.8428 30.4523 75.38C30.5316 76.933 29.9928 78.4385 28.9785 79.5953ZM48.5343 74.7302C48.0271 75.2849 47.3933 75.6969 46.6643 75.8554C45.9353 76.0138 45.1746 76.0138 44.4615 75.7444C43.7483 75.5067 43.1303 75.0471 42.7024 74.4449C42.2587 73.8427 41.9893 73.1296 41.9417 72.3848C41.91 71.6558 42.0844 70.8792 42.4647 70.2454C42.845 69.6115 43.3997 69.0726 44.0811 68.7557C44.7626 68.4387 45.5074 68.3278 46.2522 68.4388C46.9971 68.5497 47.6944 68.8666 48.249 69.3579C48.9938 70.0235 49.4376 70.9902 49.501 71.9569C49.5327 73.0187 49.1999 73.9854 48.5343 74.7302Z" fill="#C7D4DF"/>
<path d="M114.188 112.667H72.3983C67.137 112.667 62.874 108.404 62.874 103.143V101.447C62.874 96.1861 67.137 91.9231 72.3983 91.9231H114.188C119.449 91.9231 123.712 96.1861 123.712 101.447V103.143C123.712 108.404 119.449 112.667 114.188 112.667Z" fill="#E1E9F2"/>
<g opacity="0.55">
<path d="M109.008 92.1276H100.292V112.016H109.008V92.1276Z" fill="white"/>
</g>
<g opacity="0.55">
<path d="M117.721 92.5747H112.65V112.463H117.721V92.5747Z" fill="white"/>
</g>
<path d="M118.419 115.761H68.167C63.5554 115.761 59.7837 112.005 59.7837 107.393V97.235C59.7837 92.6234 63.5395 88.8676 68.167 88.8676H118.419C123.031 88.8676 126.803 92.6234 126.803 97.235V107.393C126.787 112.005 123.031 115.761 118.419 115.761ZM68.167 95.0005C66.9467 95.0005 65.9483 95.9989 65.9483 97.2192V107.377C65.9483 108.598 66.9467 109.596 68.167 109.596H118.419C119.639 109.596 120.638 108.598 120.638 107.377V97.2192C120.638 95.9989 119.639 95.0005 118.419 95.0005H68.167Z" fill="#C7D4DF"/>
<path d="M102.969 91.9236H61.1791C55.9177 91.9236 51.6548 87.6607 51.6548 82.3993V80.7036C51.6548 75.4423 55.9177 71.1793 61.1791 71.1793H102.969C108.23 71.1793 112.493 75.4423 112.493 80.7036V82.3993C112.493 87.6607 108.23 91.9236 102.969 91.9236Z" fill="#E1E9F2"/>
<g opacity="0.55">
<path d="M97.7888 71.3838H89.0728V91.2724H97.7888V71.3838Z" fill="white"/>
</g>
<g opacity="0.55">
<path d="M106.519 71.8198H101.448V91.7083H106.519V71.8198Z" fill="white"/>
</g>
<path d="M107.202 95.0025H56.9653C52.3537 95.0025 48.582 91.2467 48.582 86.6193V76.4611C48.582 71.8495 52.3379 68.0936 56.9653 68.0936H107.218C111.829 68.0936 115.601 71.8495 115.601 76.4611V86.6193C115.585 91.2467 111.829 95.0025 107.202 95.0025ZM56.9653 74.2583C55.7451 74.2583 54.7467 75.2566 54.7467 76.4769V86.6351C54.7467 87.8554 55.7451 88.8538 56.9653 88.8538H107.218C108.438 88.8538 109.436 87.8554 109.436 86.6351V76.4769C109.436 75.2566 108.438 74.2583 107.218 74.2583H56.9653Z" fill="#C7D4DF"/>
<path d="M105.664 48.8299H63.8739C58.6126 48.8299 54.3496 44.5669 54.3496 39.3056V37.6099C54.3496 32.3485 58.6126 28.0856 63.8739 28.0856H105.664C110.925 28.0856 115.188 32.3485 115.188 37.6099V39.3056C115.188 44.5669 110.925 48.8299 105.664 48.8299Z" fill="#E1E9F2"/>
<g opacity="0.55">
<path d="M100.483 28.29H91.7671V48.1786H100.483V28.29Z" fill="white"/>
</g>
<g opacity="0.55">
<path d="M109.212 28.7372H104.141V48.6257H109.212V28.7372Z" fill="white"/>
</g>
<path d="M109.895 51.9201H59.6426C55.031 51.9201 51.2593 48.1643 51.2593 43.5368V33.3787C51.2593 28.7671 55.0151 24.9954 59.6426 24.9954H109.895C114.506 24.9954 118.278 28.7512 118.278 33.3787V43.5368C118.278 48.1643 114.506 51.9201 109.895 51.9201ZM59.6426 31.16C58.4223 31.16 57.4239 32.1584 57.4239 33.3787V43.5368C57.4239 44.7571 58.4223 45.7555 59.6426 45.7555H109.895C111.115 45.7555 112.113 44.7571 112.113 43.5368V33.3787C112.113 32.1584 111.115 31.16 109.895 31.16H59.6426Z" fill="#C7D4DF"/>
<path d="M114.188 70.8451H72.3978C67.1365 70.8451 62.8735 66.5821 62.8735 61.3208V59.6252C62.8735 54.3638 67.1365 50.1008 72.3978 50.1008H114.188C119.449 50.1008 123.712 54.3638 123.712 59.6252V61.3208C123.712 66.5821 119.449 70.8451 114.188 70.8451Z" fill="#E1E9F2"/>
<path d="M118.42 71.3053H68.1674C64.9979 71.3053 62.4307 68.7222 62.4307 65.5686V55.4103C62.4307 52.2409 65.0138 49.6736 68.1674 49.6736H118.42C121.589 49.6736 124.156 52.2567 124.156 55.4103V65.5686C124.156 68.7222 121.573 71.3053 118.42 71.3053ZM68.1674 50.5452C65.4892 50.5452 63.3181 52.7163 63.3181 55.3945V65.5527C63.3181 68.2309 65.4892 70.402 68.1674 70.402H118.42C121.098 70.402 123.269 68.2309 123.269 65.5527V55.3945C123.269 52.7163 121.098 50.5452 118.42 50.5452H68.1674Z" fill="#C7D4DF"/>
<g opacity="0.55">
<path d="M109.008 50.3062H100.292V70.1947H109.008V50.3062Z" fill="white"/>
</g>
<g opacity="0.55">
<path d="M117.721 50.7343H112.65V70.6228H117.721V50.7343Z" fill="white"/>
</g>
<path d="M118.419 73.9361H68.167C63.5554 73.9361 59.7837 70.1802 59.7837 65.5528V55.3945C59.7837 50.7829 63.5395 47.0271 68.167 47.0271H118.419C123.031 47.0271 126.803 50.7829 126.803 55.3945V65.5528C126.787 70.1644 123.031 73.9361 118.419 73.9361ZM68.167 53.1759C66.9467 53.1759 65.9483 54.1743 65.9483 55.3945V65.5528C65.9483 66.773 66.9467 67.7714 68.167 67.7714H118.419C119.639 67.7714 120.638 66.773 120.638 65.5528V55.3945C120.638 54.1743 119.639 53.1759 118.419 53.1759H68.167Z" fill="#C7D4DF"/>
</svg>
