<svg width="30" height="30" viewBox="0 0 30 30" fill="none" xmlns="http://www.w3.org/2000/svg">
<g clip-path="url(#clip0_5745_49885)">
<path d="M25.5155 25.1895C24.874 25.1895 24.2544 24.8422 23.9336 24.2325L15.5919 8.38381C15.1305 7.50739 15.4638 6.42181 16.3365 5.9585C17.2092 5.49519 18.2912 5.82986 18.7515 6.70628L27.0933 22.555C27.5546 23.4314 27.2214 24.517 26.3487 24.9803C26.0821 25.1215 25.7967 25.1884 25.5155 25.1884V25.1895Z" fill="black"/>
<path d="M14.2413 4.6791C15.5279 4.6791 16.5709 3.63165 16.5709 2.33955C16.5709 1.04745 15.5279 0 14.2413 0C12.9546 0 11.9116 1.04745 11.9116 2.33955C11.9116 3.63165 12.9546 4.6791 14.2413 4.6791Z" fill="black"/>
<path d="M28.012 30.0008C29.11 30.0008 30 29.107 30 28.0043C30 26.9017 29.11 26.0078 28.012 26.0078C26.914 26.0078 26.0239 26.9017 26.0239 28.0043C26.0239 29.107 26.914 30.0008 28.012 30.0008Z" fill="black"/>
<path d="M1.98806 29.8954C3.08603 29.8954 3.97612 29.0015 3.97612 27.8989C3.97612 26.7962 3.08603 25.9023 1.98806 25.9023C0.890084 25.9023 0 26.7962 0 27.8989C0 29.0015 0.890084 29.8954 1.98806 29.8954Z" fill="black"/>
<path d="M13.3551 13.7179L8.40737 10.6274C7.61589 10.1704 6.60468 10.4444 6.14854 11.2393C5.71531 11.9965 5.93922 12.9607 6.66092 13.447L7.73565 14.1185L4.22713 19.7848C3.74496 20.564 3.9824 21.5879 4.75825 22.0731C5.53411 22.5574 6.55365 22.3189 7.03582 21.5398L10.5412 15.8786L11.6055 16.5438C12.3824 17.029 13.403 16.7895 13.8862 16.0104C14.3695 15.2312 14.131 14.2053 13.3541 13.72" fill="black"/>
</g>
<defs>
<clipPath id="clip0_5745_49885">
<rect width="30" height="30" fill="white"/>
</clipPath>
</defs>
</svg>
