<svg width="50" height="50" viewBox="0 0 50 50" fill="none" xmlns="http://www.w3.org/2000/svg">
<g clip-path="url(#clip0_6162_4634)">
<path d="M38.5346 21.1758C36.6422 21.1758 35.1074 22.7106 35.1074 24.603C35.1074 26.4954 36.6422 28.0302 38.5346 28.0302C40.4271 28.0302 41.9618 26.4954 41.9618 24.603V24.5989C41.9577 22.7085 40.425 21.1778 38.5346 21.1758Z" fill="black"/>
<path d="M21.7383 21.6214H16.9439V15.7337C16.9439 13.8903 15.45 12.3984 13.6087 12.3984C11.7673 12.3984 10.2734 13.8923 10.2734 15.7337V34.2737C10.2734 36.1171 11.7673 37.6089 13.6087 37.6089C15.45 37.6089 16.9439 36.115 16.9439 34.2737V27.591H21.7383C23.3876 27.591 24.7241 26.2544 24.7241 24.6052C24.7241 22.9559 23.3876 21.6194 21.7383 21.6194V21.6214Z" fill="black"/>
<path d="M29.9251 12.3945C28.0817 12.3945 26.5898 13.8884 26.5898 15.7298V34.2698C26.5898 36.1132 28.0838 37.605 29.9251 37.605C31.7664 37.605 33.2603 36.1111 33.2603 34.2698V15.7318C33.2603 13.8884 31.7664 12.3966 29.9251 12.3966V12.3945Z" fill="black"/>
<path d="M33.2196 50H16.7804C7.52882 50 0 42.4712 0 33.2196V16.7804C0 7.52677 7.52882 0 16.7804 0H33.2175C42.4712 0 49.998 7.52677 49.998 16.7804V33.2175C49.998 42.4712 42.4712 49.998 33.2175 49.998L33.2196 50ZM16.7804 4.7004C10.1202 4.7004 4.7004 10.1202 4.7004 16.7804V33.2175C4.7004 39.8778 10.1202 45.2976 16.7804 45.2976H33.2175C39.8778 45.2976 45.2976 39.8778 45.2976 33.2175V16.7804C45.2976 10.1202 39.8778 4.7004 33.2175 4.7004H16.7804Z" fill="black"/>
</g>
<defs>
<clipPath id="clip0_6162_4634">
<rect width="50" height="50" fill="white"/>
</clipPath>
</defs>
</svg>
