<svg width="21" height="21" viewBox="0 0 21 21" fill="none" xmlns="http://www.w3.org/2000/svg">
  <path
    d="M19.1267 2.67167H4.36566L3.10444 0.411006C2.96288 0.157258 2.69507 0 2.4045 0H0.801501C0.358844 0 0 0.358844 0 0.801501C0 1.24416 0.358844 1.603 0.801501 1.603H1.93386L3.17853 3.83401L6.04905 10.1853L6.05199 10.1918L6.30482 10.7512L3.4228 13.8254C3.21557 14.0464 3.1507 14.3654 3.25515 14.6499C3.35959 14.9343 3.61549 15.1355 3.91652 15.1699L6.54344 15.4701C9.82925 15.8456 13.1471 15.8456 16.4329 15.4701L19.0599 15.1699C19.4997 15.1196 19.8154 14.7224 19.7652 14.2826C19.7149 13.8428 19.3177 13.527 18.8779 13.5773L16.2509 13.8775C13.0861 14.2392 9.89032 14.2392 6.72546 13.8775L5.68295 13.7583L7.79825 11.502C7.81871 11.4802 7.83772 11.4575 7.85527 11.4341L8.65978 11.5388C9.78714 11.6855 10.9267 11.7143 12.06 11.6246C14.7034 11.4156 17.1532 10.1578 18.8636 8.13157L19.4813 7.39972C19.5021 7.37515 19.5213 7.34934 19.539 7.32245L20.6903 5.56785C21.5064 4.32418 20.6143 2.67167 19.1267 2.67167Z"
    fill="white" />
  <path
    d="M5.61051 16.8315C4.72519 16.8315 4.00751 17.5492 4.00751 18.4345C4.00751 19.3198 4.72519 20.0375 5.61051 20.0375C6.49582 20.0375 7.21351 19.3198 7.21351 18.4345C7.21351 17.5492 6.49582 16.8315 5.61051 16.8315Z"
    fill="white" />
  <path
    d="M15.7628 18.4345C15.7628 17.5492 16.4805 16.8315 17.3659 16.8315C18.2512 16.8315 18.9689 17.5492 18.9689 18.4345C18.9689 19.3198 18.2512 20.0375 17.3659 20.0375C16.4805 20.0375 15.7628 19.3198 15.7628 18.4345Z"
    fill="white" />
</svg>