<svg width="110" height="144" viewBox="0 0 110 144" fill="none" xmlns="http://www.w3.org/2000/svg">
<path d="M29.3844 0.225645L9.23829 4.42082C3.2654 5.6609 -0.629391 11.8085 0.552743 18.1409L7.2349 54.1692C7.90685 57.7839 10.184 60.6203 13.1331 62.0055C13.3447 62.2693 13.5189 62.4145 13.6308 62.3485C13.6557 62.3353 13.718 62.3089 13.8051 62.2957C15.5098 62.9554 17.3888 63.14 19.2927 62.7443L26.6094 61.214C26.6965 61.214 26.7339 61.2008 26.7339 61.2008L26.933 61.1348L40.1853 58.3776C46.1582 57.1375 50.053 50.9899 48.8709 44.6575L42.338 9.42073C41.1559 3.10158 35.3573 -1.02763 29.3844 0.225645Z" fill="#E1E9F2"/>
<path d="M30.6039 49.2083L36.0168 42.1767C36.2533 41.8733 36.6515 41.7942 36.975 41.9789L44.7522 46.5962C44.7273 46.3455 44.69 46.0817 44.6402 45.831L38.406 12.1377C37.4852 7.17738 32.9433 3.94525 28.277 4.92149L11.9511 8.32512C7.27237 9.30135 4.22371 14.1166 5.14453 19.0637L11.4036 52.7702V52.7834C11.5405 53.4826 12.4364 53.6277 12.7848 53.0077L18.8946 42.0976C19.1186 41.6886 19.6288 41.5831 19.9896 41.8601L29.5586 49.327C29.8946 49.604 30.3426 49.5381 30.6039 49.2083Z" fill="#C7D4DF"/>
<path d="M20.6363 59.3538L38.4305 55.6467C42.3129 54.842 44.9759 51.1217 44.7768 47.0453C44.7643 46.7814 44.615 46.5308 44.391 46.3988L36.9747 41.9926C36.6511 41.8079 36.2529 41.8871 36.0165 42.1905L30.6036 49.222C30.3423 49.5518 29.8943 49.6178 29.5708 49.3539L20.0018 41.8871C19.6409 41.61 19.1307 41.7156 18.9067 42.1245L12.1499 54.1823C12.0254 54.4066 12.0005 54.6968 12.1125 54.9343C13.6555 58.1796 17.1024 60.0925 20.6363 59.3538Z" fill="#E1E9F2"/>
<path d="M23.5726 29.158C27.1737 29.158 30.0931 26.063 30.0931 22.2452C30.0931 18.4274 27.1737 15.3324 23.5726 15.3324C19.9715 15.3324 17.0522 18.4274 17.0522 22.2452C17.0522 26.063 19.9715 29.158 23.5726 29.158Z" fill="#E1E9F2"/>
<path d="M101.744 86.2413L82.033 80.1068C76.197 78.2863 70.0624 81.835 68.3576 88.0355L58.6019 123.272C57.6189 126.808 58.4153 130.436 60.4187 133.114C60.4933 133.457 60.5804 133.668 60.7048 133.655C60.7422 133.655 60.8044 133.668 60.8791 133.694C62.0985 135.106 63.6913 136.201 65.5578 136.781L72.7129 139.011C72.7875 139.05 72.8373 139.064 72.8373 139.064L73.0363 139.103L85.9901 143.14C91.8261 144.961 97.9607 141.412 99.6655 135.211L109.21 100.753C110.927 94.5525 107.58 88.0618 101.744 86.2413Z" fill="#C7D4DF"/>
<path d="M68.2575 134.433L85.6659 139.842C89.4736 141.029 93.4431 139.024 95.0358 135.317C95.1354 135.066 95.1105 134.789 94.9736 134.565L90.3073 127.019C90.1082 126.689 89.71 126.57 89.3741 126.716L81.5098 130.304C81.1364 130.475 80.7134 130.304 80.5267 129.921L75.288 118.615C75.0889 118.193 74.5912 118.035 74.2054 118.286L62.9565 125.673C62.745 125.819 62.5957 126.056 62.5957 126.333C62.5583 129.974 64.7857 133.351 68.2575 134.433Z" fill="#C7D4DF"/>
<path d="M88.5414 111.662C92.1425 111.662 95.0618 108.567 95.0618 104.749C95.0618 100.931 92.1425 97.8362 88.5414 97.8362C84.9403 97.8362 82.021 100.931 82.021 104.749C82.021 108.567 84.9403 111.662 88.5414 111.662Z" fill="#C7D4DF"/>
<path d="M95.2231 75.818C95.1733 75.818 95.1111 75.818 95.0614 75.818C92.9957 75.7257 91.403 73.8788 91.4901 71.702C91.9629 60.0136 88.1055 48.8265 80.6394 40.2118C73.1733 31.5972 62.982 26.5709 51.957 26.0828C49.8914 25.9905 48.2986 24.1435 48.3857 21.9668C48.4728 19.7901 50.2523 18.0882 52.2681 18.1806C65.284 18.7611 77.3169 24.6976 86.1269 34.8689C94.9369 45.0403 99.4912 58.2458 98.9437 72.0582C98.8691 74.1558 97.2141 75.818 95.2231 75.818Z" fill="#C7D4DF"/>
<path d="M48.2977 121.517C48.2479 121.517 48.1857 121.517 48.136 121.517C21.258 120.303 0.315512 96.1348 1.46031 67.6393C1.54742 65.4625 3.31443 63.7739 5.34272 63.8531C7.40834 63.9454 9.00111 65.7924 8.914 67.9691C7.94341 92.0979 25.6754 112.572 48.4471 113.601C50.5127 113.694 52.1054 115.541 52.0183 117.718C51.9437 119.855 50.2886 121.517 48.2977 121.517Z" fill="#C7D4DF"/>
</svg>
