<svg width="110" height="144" viewBox="0 0 110 144" fill="none" xmlns="http://www.w3.org/2000/svg">
<path d="M25.9288 25.4376L9.47231 30.3367C4.58961 31.7943 0.64502 37.6921 0.64502 43.5089V76.6418C0.64502 79.9619 2.02393 82.4856 4.1375 83.6328C4.26183 83.8757 4.38616 83.9972 4.47658 83.9297C4.49919 83.9162 4.55571 83.8892 4.62352 83.8757C5.8668 84.4021 7.31352 84.4831 8.87328 84.0242L14.841 82.2427C14.9088 82.2292 14.9427 82.2292 14.9427 82.2292L15.1123 82.1617L25.9288 78.9362C30.8115 77.4786 34.7561 71.5808 34.7561 65.764V33.3598C34.7561 27.5295 30.8115 23.98 25.9288 25.4376Z" fill="#E1E9F2"/>
<path d="M19.7466 70.8805L25.0362 64.0919C25.2622 63.795 25.59 63.7005 25.8161 63.8625L31.2526 67.7764C31.2752 67.5334 31.2752 67.304 31.2752 67.0611V36.0605C31.2752 31.4988 28.1783 28.7186 24.358 29.8658L11.0436 33.8336C7.22336 34.9673 4.12646 39.5965 4.12646 44.1447V75.1452V75.1587C4.12646 75.8065 4.81591 75.901 5.17759 75.3072L11.5748 64.8747C11.8122 64.4833 12.2304 64.3618 12.4791 64.6048L18.9215 71.0694C19.1249 71.2853 19.4979 71.2044 19.7466 70.8805Z" fill="#C7D4DF"/>
<path d="M10.4341 80.8013L24.9692 76.4691C28.1452 75.5244 30.7674 71.9479 31.2082 68.169C31.2421 67.926 31.1517 67.7101 30.9935 67.5886L25.8056 63.8637C25.5796 63.7018 25.2518 63.7962 25.0257 64.0932L19.7361 70.8817C19.4875 71.2056 19.1145 71.2866 18.8997 71.0571L12.4573 64.5925C12.2199 64.3496 11.8017 64.471 11.5531 64.8624L4.47769 76.4016C4.34206 76.6175 4.28556 76.8875 4.34207 77.1034C5.11064 80.059 7.54069 81.6651 10.4341 80.8013Z" fill="#E1E9F2"/>
<path d="M21.4999 50.922C23.6608 47.9999 23.865 43.9992 21.9559 41.9863C20.0468 39.9734 16.7474 40.7105 14.5865 43.6326C12.4256 46.5548 12.2215 50.5554 14.1306 52.5683C16.0397 54.5812 19.339 53.8442 21.4999 50.922Z" fill="#E1E9F2"/>
<path d="M63.7482 12.2947L47.2917 17.1938C42.409 18.6514 38.4644 24.5492 38.4644 30.366V63.4989C38.4644 66.819 39.8433 69.3428 41.9569 70.4899C42.0812 70.7329 42.2055 70.8543 42.2959 70.7868C42.3185 70.7733 42.375 70.7464 42.4429 70.7329C43.6861 71.2592 45.1329 71.3402 46.6926 70.8813L52.6604 69.0998C52.7282 69.0863 52.7621 69.0863 52.7621 69.0863L52.9316 69.0188L63.7482 65.7933C68.6309 64.3357 72.5755 58.4379 72.5755 52.6211V20.2169C72.5868 14.3866 68.6309 10.8371 63.7482 12.2947Z" fill="#E1E9F2"/>
<path d="M57.5659 57.7376L62.8555 50.949C63.0816 50.6521 63.4094 50.5576 63.6354 50.7196L69.0719 54.6335C69.0945 54.3905 69.0945 54.1611 69.0945 53.9182V22.9176C69.0945 18.3559 65.9976 15.5757 62.1774 16.7229L48.863 20.6908C45.0427 21.8244 41.9458 26.4536 41.9458 31.0018V62.0023V62.0158C41.9458 62.6637 42.6353 62.7581 42.9969 62.1643L49.3942 51.7318C49.6315 51.3404 50.0497 51.219 50.2984 51.4619L56.7409 57.9265C56.9556 58.1425 57.3173 58.0615 57.5659 57.7376Z" fill="#E1E9F2"/>
<path d="M48.2628 67.6531L62.7978 63.3209C65.9739 62.3762 68.5961 58.7997 69.0369 55.0208C69.0708 54.7779 68.9803 54.5619 68.8221 54.4405L63.6342 50.7155C63.4082 50.5536 63.0804 50.6481 62.8544 50.945L57.5648 57.7335C57.3161 58.0574 56.9431 58.1384 56.7284 57.909L50.2859 51.4443C50.0486 51.2014 49.6304 51.3229 49.3817 51.7142L42.3063 63.2534C42.1707 63.4693 42.1142 63.7393 42.1707 63.9552C42.9279 66.9109 45.3693 68.5169 48.2628 67.6531Z" fill="#C7D4DF"/>
<path d="M59.0478 36.0289C61.2087 33.1067 61.4128 29.1061 59.5037 27.0932C57.5946 25.0803 54.2952 25.8173 52.1343 28.7395C49.9734 31.6616 49.7693 35.6623 51.6784 37.6752C53.5875 39.6881 56.8869 38.951 59.0478 36.0289Z" fill="#C7D4DF"/>
<path d="M100.572 0.323071L84.1154 5.22216C79.2327 6.67974 75.2881 12.5775 75.2881 18.3944V51.5273C75.2881 54.8473 76.667 57.3711 78.7806 58.5183C78.9049 58.7612 79.0292 58.8827 79.1197 58.8152C79.1423 58.8017 79.1988 58.7747 79.2666 58.7612C80.5099 59.2876 81.9566 59.3685 83.5163 58.9097L89.4841 57.1282C89.5519 57.1147 89.5858 57.1147 89.5858 57.1147L89.7554 57.0472L100.572 53.8216C105.455 52.3641 109.399 46.4663 109.399 40.6494V8.24529C109.399 2.41497 105.443 -1.12101 100.572 0.323071Z" fill="#C7D4DF"/>
<path d="M85.0753 55.6859L99.6103 51.3537C102.786 50.4089 105.409 46.8325 105.849 43.0536C105.883 42.8106 105.793 42.5947 105.635 42.4732L100.447 38.7483C100.221 38.5864 99.8929 38.6808 99.6669 38.9777L94.3773 45.7663C94.1286 46.0902 93.7556 46.1712 93.5409 45.9417L87.0984 39.4771C86.8611 39.2342 86.4429 39.3556 86.1942 39.747L79.1188 51.2862C78.9832 51.5021 78.9267 51.772 78.9832 51.988C79.7518 54.9436 82.1818 56.5497 85.0753 55.6859Z" fill="#C7D4DF"/>
<path d="M95.8696 24.4675C98.0305 21.5454 98.2346 17.5447 96.3255 15.5318C94.4164 13.5189 91.117 14.256 88.9561 17.1782C86.7952 20.1003 86.5911 24.101 88.5002 26.1139C90.4093 28.1268 93.7087 27.3897 95.8696 24.4675Z" fill="#C7D4DF"/>
<path d="M25.6241 84.7265L9.16762 89.6255C4.28492 91.0831 0.340332 96.9809 0.340332 102.798V135.931C0.340332 139.251 1.71924 141.774 3.83282 142.922C3.95714 143.165 4.08148 143.286 4.1719 143.219C4.1945 143.205 4.25102 143.178 4.31884 143.165C5.56212 143.691 7.00884 143.772 8.56859 143.313L14.5363 141.532C14.6042 141.518 14.6381 141.518 14.6381 141.518L14.8076 141.451L25.6241 138.225C30.5068 136.767 34.4514 130.87 34.4514 125.053V92.6487C34.4514 86.8184 30.4955 83.2824 25.6241 84.7265Z" fill="#C7D4DF"/>
<path d="M19.4307 130.182L24.7203 123.393C24.9463 123.096 25.2741 123.002 25.5001 123.164L30.9367 127.078C30.9593 126.835 30.9593 126.605 30.9593 126.363V95.3485C30.9593 90.7868 27.8624 88.0066 24.0421 89.1538L10.7277 93.1216C6.90744 94.2553 3.81055 98.8845 3.81055 103.433V134.433V134.447C3.81055 135.095 4.49999 135.189 4.86168 134.595L11.2589 124.163C11.4963 123.771 11.9145 123.65 12.1631 123.893L18.6056 130.357C18.8203 130.573 19.182 130.492 19.4307 130.182Z" fill="#C7D4DF"/>
<path d="M10.1275 140.089L24.6626 135.757C27.8386 134.812 30.4608 131.236 30.9016 127.457C30.9355 127.214 30.8451 126.998 30.6868 126.877L25.499 123.152C25.2729 122.99 24.9452 123.084 24.7191 123.381L19.4295 130.17C19.1808 130.494 18.8079 130.575 18.5931 130.345L12.1507 123.88C11.9133 123.638 11.4951 123.759 11.2465 124.15L4.17105 135.69C4.03542 135.906 3.97891 136.175 4.03543 136.391C4.7927 139.361 7.23405 140.953 10.1275 140.089Z" fill="white"/>
<path d="M21.1909 110.226C23.3518 107.304 23.5559 103.303 21.6468 101.29C19.7377 99.2772 16.4383 100.014 14.2774 102.936C12.1165 105.859 11.9124 109.859 13.8215 111.872C15.7306 113.885 19.03 113.148 21.1909 110.226Z" fill="white"/>
<path d="M63.4435 71.5986L46.987 76.4977C42.1043 77.9553 38.1597 83.8531 38.1597 89.6699V122.803C38.1597 126.123 39.5386 128.647 41.6522 129.794C41.7765 130.037 41.9008 130.158 41.9912 130.091C42.0138 130.077 42.0703 130.05 42.1382 130.037C43.3814 130.563 44.8282 130.644 46.3879 130.185L52.3557 128.404C52.4235 128.39 52.4574 128.39 52.4574 128.39L52.6269 128.323L63.4435 125.097C68.3262 123.64 72.2708 117.742 72.2708 111.925V79.5073C72.2708 73.6905 68.3262 70.141 63.4435 71.5986Z" fill="#E1E9F2"/>
<path d="M47.9468 126.941L62.4819 122.609C65.6579 121.664 68.2801 118.088 68.7209 114.309C68.7548 114.066 68.6644 113.85 68.5062 113.728L63.3183 110.004C63.0923 109.842 62.7645 109.936 62.5384 110.233L57.2488 117.022C57.0002 117.345 56.6272 117.426 56.4125 117.197L49.97 110.732C49.7326 110.489 49.3145 110.611 49.0658 111.002L41.9904 122.541C41.8548 122.757 41.7982 123.027 41.8548 123.243C42.6233 126.212 45.0534 127.805 47.9468 126.941Z" fill="#E1E9F2"/>
<path d="M58.7475 95.3221C60.9084 92.3999 61.1125 88.3993 59.2034 86.3864C57.2943 84.3735 53.9949 85.1106 51.834 88.0327C49.6731 90.9549 49.469 94.9555 51.3781 96.9684C53.2872 98.9813 56.5866 98.2442 58.7475 95.3221Z" fill="#E1E9F2"/>
<path d="M81.1981 119.182C80.4182 119.182 79.661 119.047 78.9602 118.777C78.7681 118.844 78.429 118.871 78.0899 118.359C75.7842 117.022 74.4053 114.229 74.4053 110.828V77.6948C74.4053 71.5946 78.5646 65.3864 83.6621 63.8613L100.119 58.9622C102.707 58.193 105.126 58.7058 106.945 60.4063C108.697 62.0393 109.658 64.5631 109.658 67.5323V99.9499C109.658 106.05 105.499 112.258 100.401 113.783L83.3343 118.858C82.6109 119.074 81.8989 119.182 81.1981 119.182ZM78.9715 117.346L79.141 117.414C80.3165 117.913 81.6728 117.954 83.063 117.535L100.13 112.461C104.764 111.084 108.539 105.47 108.539 99.9364V67.5323C108.539 64.9815 107.737 62.8356 106.267 61.459C104.73 60.0284 102.65 59.5966 100.412 60.2714L83.9559 65.1704C79.3219 66.547 75.5468 72.1614 75.5468 77.6948V110.828C75.5468 113.743 76.7336 116.132 78.7115 117.211L78.9037 117.373L78.9715 117.346ZM78.542 117.508C78.5307 117.508 78.5194 117.522 78.5081 117.522C78.5307 117.522 78.542 117.522 78.542 117.508Z" fill="#C7D4DF"/>
<path d="M78.9147 110.56C78.8017 110.56 78.6886 110.533 78.5756 110.492C78.1574 110.33 77.8975 109.885 77.8975 109.345V78.331C77.8975 73.4859 81.1978 68.5598 85.2441 67.3587L98.5585 63.3908C100.616 62.7835 102.548 63.1884 104.006 64.538C105.408 65.8471 106.176 67.8715 106.176 70.2333V101.234C106.176 101.49 106.165 101.747 106.143 102.003L106.063 103.083L99.8583 98.6291C99.8809 98.6426 99.8244 98.6696 99.7792 98.7371L94.4896 105.526C94.0375 106.106 93.3254 106.214 92.8733 105.769L86.4535 99.3174C86.4648 99.3444 86.4083 99.3714 86.3631 99.4524L79.9658 109.885C79.6946 110.317 79.299 110.56 78.9147 110.56ZM100.378 64.457C99.8809 64.457 99.361 64.538 98.8298 64.6999L85.5154 68.6678C81.9325 69.734 79.0277 74.0662 79.0277 78.331V109.129C79.039 109.116 79.0503 109.102 79.0616 109.089L85.4589 98.6561C85.6849 98.2917 86.024 98.0488 86.3744 97.9948C86.6795 97.9543 86.9621 98.0488 87.1769 98.2647L93.5967 104.702C93.5854 104.675 93.6306 104.662 93.6758 104.594L98.9654 97.8059C99.3723 97.2795 100.005 97.1311 100.446 97.455L105.058 100.762V70.2468C105.058 68.3034 104.447 66.6569 103.317 65.6042C102.492 64.8484 101.486 64.457 100.378 64.457Z" fill="#C7D4DF"/>
<path d="M83.2343 115.889C80.8269 115.889 78.8489 114.243 78.1481 111.49C78.0464 111.071 78.1256 110.585 78.3742 110.194L85.4496 98.6547C85.6757 98.2903 86.0147 98.0474 86.3651 97.9934C86.6703 97.9529 86.9528 98.0474 87.1676 98.2633L93.5874 104.701C93.5761 104.674 93.6214 104.66 93.6666 104.593L98.9561 97.8045C99.363 97.2781 99.9847 97.1297 100.437 97.4536L105.625 101.178C105.975 101.435 106.167 101.907 106.099 102.42C105.613 106.55 102.81 110.275 99.4309 111.287L84.8958 115.619C84.3306 115.808 83.7768 115.889 83.2343 115.889ZM86.4555 99.316C86.4668 99.343 86.4103 99.37 86.3651 99.451L79.2897 110.99C79.2558 111.044 79.2445 111.098 79.2445 111.125C79.9226 113.797 82.0927 115.093 84.6358 114.324L99.1709 109.991C102.076 109.128 104.574 105.794 104.992 102.245L99.8717 98.6142C99.8943 98.6277 99.8378 98.6547 99.7925 98.7222L94.5029 105.511C94.0508 106.091 93.3388 106.199 92.8867 105.754L86.4555 99.316Z" fill="#C7D4DF"/>
<path d="M92.3545 87.2399C91.292 87.2399 90.3313 86.862 89.5401 86.1197C88.4438 85.1075 87.8447 83.5284 87.8447 81.6795C87.8447 77.9545 90.3765 74.1621 93.496 73.2309C95.0897 72.7585 96.5929 73.0689 97.7345 74.1351C98.8195 75.1473 99.4298 76.7264 99.4298 78.5753C99.4298 82.3003 96.8981 86.0927 93.7786 87.0239C93.2813 87.1724 92.8066 87.2399 92.3545 87.2399ZM94.8975 74.3781C94.5358 74.3781 94.1516 74.432 93.7673 74.5535C91.1225 75.3363 88.975 78.5484 88.975 81.693C88.975 83.11 89.4271 84.3112 90.2296 85.067C91.0773 85.8632 92.2414 86.0927 93.496 85.7283C96.1408 84.9455 98.2883 81.7334 98.2883 78.5888C98.2883 77.1718 97.8362 75.9706 97.0337 75.2148C96.446 74.6615 95.7113 74.3781 94.8975 74.3781Z" fill="#C7D4DF"/>
</svg>
