<svg width="30" height="32" viewBox="0 0 30 32" fill="none" xmlns="http://www.w3.org/2000/svg">
<path d="M15.0523 0.667969C11.1895 0.667969 8.05811 3.79937 8.05811 7.66214C8.05811 11.5249 11.1895 14.6563 15.0523 14.6563C18.9151 14.6563 22.0464 11.5249 22.0464 7.66214C22.0464 3.79937 18.9151 0.667969 15.0523 0.667969Z" fill="#CBD5E1"/>
<path d="M7.59183 18.3865C3.72905 18.3865 0.597656 21.5179 0.597656 25.3807V27.597C0.597656 29.0019 1.61579 30.1997 3.00229 30.4261C10.9828 31.729 19.1218 31.729 27.1023 30.4261C28.4888 30.1997 29.5069 29.0019 29.5069 27.597V25.3807C29.5069 21.5179 26.3755 18.3865 22.5127 18.3865H21.877C21.5329 18.3865 21.1909 18.441 20.8638 18.5478L19.2496 19.0749C16.5222 19.9654 13.5823 19.9654 10.855 19.0749L9.24072 18.5478C8.91362 18.441 8.57169 18.3865 8.22759 18.3865H7.59183Z" fill="#CBD5E1"/>
</svg>
