<svg width="110" height="145" viewBox="0 0 110 145" fill="none" xmlns="http://www.w3.org/2000/svg">
<path fill-rule="evenodd" clip-rule="evenodd" d="M0.341309 114.096C4.56374 122.77 8.80009 131.459 13.0365 140.133C14.6669 143.474 18.3459 145.047 21.6625 143.803C38.9564 137.287 52.5016 145.257 71.6907 142.395C72.5268 142.275 73.335 141.976 74.0736 141.541C84.6367 135.324 95.2276 129.092 105.819 122.89C108.285 121.436 109.929 118.575 109.623 115.564C109.386 113.167 108.006 111.444 105.387 110.47C102.474 109.377 99.255 109.886 96.5654 111.504C89.9182 115.504 83.285 119.519 76.6238 123.504C75.2024 124.358 73.5441 124.672 71.9415 124.418C64.4722 123.189 57.0167 121.961 49.5612 120.732C47.7357 120.433 46.37 118.68 46.5511 116.702C47.457 106.905 59.5948 114.485 68.8061 115.459C70.8964 115.684 73.0006 114.995 74.5056 113.421C76.6935 111.114 76.7771 108.657 74.1991 105.961C73.2236 104.942 71.9694 104.253 70.6316 103.953C59.0373 101.347 47.4709 98.7548 35.8906 96.1481C34.2323 95.7736 32.4903 96.0282 30.9853 96.8822C20.7567 102.575 10.542 108.328 0.341309 114.096Z" fill="#C7D4DF"/>
<path d="M68.8209 0.914515L42.0509 6.56245C34.1216 8.24035 28.9516 16.51 30.5123 25.0343L39.3892 73.5586C40.281 78.4275 43.3051 82.2477 47.2209 84.1203C47.4997 84.4799 47.7365 84.6747 47.8759 84.5848C47.9177 84.5548 47.9873 84.5398 48.0988 84.5098C50.3563 85.3937 52.8648 85.6484 55.3871 85.1091L65.1 83.0567C65.2115 83.0567 65.2673 83.0417 65.2673 83.0417L65.532 82.9668L83.1325 79.2514C91.0617 77.5735 96.2318 69.3039 94.6711 60.7796L85.9892 13.319C84.4424 4.77967 76.7501 -0.763385 68.8209 0.914515Z" fill="#E1E9F2"/>
<path d="M70.4356 66.8743L77.6262 57.4061C77.9328 57.0017 78.4763 56.8968 78.8944 57.1515L89.2205 63.3687C89.1926 63.0241 89.1369 62.6795 89.0812 62.335L80.7896 16.9418C79.5632 10.2602 73.5432 5.91562 67.328 7.21898L45.6583 11.8032C39.4431 13.1216 35.4019 19.5935 36.6142 26.2751L44.9058 71.6683C44.9058 71.6833 44.9058 71.6833 44.9058 71.6982C45.087 72.6421 46.2715 72.8368 46.7314 72.0129L54.8558 57.3312C55.1623 56.7769 55.8451 56.6271 56.319 57.0166L69.0281 67.069C69.4879 67.4136 70.0872 67.3237 70.4356 66.8743Z" fill="#C7D4DF"/>
<path d="M57.1981 80.5376L80.8326 75.5488C86.0026 74.4552 89.5143 69.4515 89.2635 63.9683C89.2495 63.6088 89.0405 63.2792 88.7479 63.0994L78.8955 57.1519C78.4635 56.8972 77.9339 57.0021 77.6274 57.4065L70.4367 66.8747C70.1023 67.3241 69.4891 67.399 69.0571 67.0545L56.348 57.002C55.8742 56.6275 55.1914 56.7773 54.8848 57.3167L45.8964 73.5563C45.7292 73.8709 45.7013 74.2604 45.8546 74.575C47.917 78.9645 52.5018 81.5263 57.1981 80.5376Z" fill="#E1E9F2"/>
<path d="M61.087 39.8679C65.8664 39.8679 69.7409 35.7027 69.7409 30.5646C69.7409 25.4265 65.8664 21.2612 61.087 21.2612C56.3075 21.2612 52.4331 25.4265 52.4331 30.5646C52.4331 35.7027 56.3075 39.8679 61.087 39.8679Z" fill="#E1E9F2"/>
</svg>
