<?xml version="1.0" standalone="no"?>
<!DOCTYPE svg PUBLIC "-//W3C//DTD SVG 20010904//EN"
 "http://www.w3.org/TR/2001/REC-SVG-20010904/DTD/svg10.dtd">
<svg version="1.0" xmlns="http://www.w3.org/2000/svg"
 width="700.000000pt" height="700.000000pt" viewBox="0 0 700.000000 700.000000"
 preserveAspectRatio="xMidYMid meet">
<metadata>
Created by potrace 1.14, written by Peter Selinger 2001-2017
</metadata>
<g transform="translate(0.000000,700.000000) scale(0.100000,-0.100000)"
fill="#000000" stroke="none">
<path d="M3213 6990 c-128 -26 -263 -118 -342 -233 -56 -84 -84 -172 -87 -282
-3 -114 10 -175 59 -274 61 -125 203 -238 345 -275 60 -16 194 -19 247 -6 22
6 48 12 57 15 40 9 156 78 196 116 142 136 196 296 169 496 -25 183 -174 358
-362 424 -65 23 -213 33 -282 19z"/>
<path d="M3900 5643 c-234 -69 -364 -309 -288 -532 16 -47 40 -96 178 -356 20
-38 65 -124 100 -190 34 -66 79 -151 100 -190 21 -38 63 -119 95 -180 88 -168
153 -292 200 -380 23 -44 71 -134 105 -200 35 -66 80 -151 100 -190 20 -38 68
-128 105 -200 37 -71 75 -143 85 -160 10 -16 55 -102 100 -190 45 -88 97 -187
115 -220 18 -33 60 -114 95 -180 34 -66 75 -142 90 -170 26 -48 75 -141 210
-400 34 -66 79 -151 100 -190 20 -38 66 -124 100 -190 35 -66 74 -140 87 -164
114 -216 349 -295 567 -191 99 47 190 167 216 285 25 113 5 201 -83 368 -30
56 -83 156 -117 222 -34 66 -79 152 -100 190 -20 39 -68 129 -105 200 -37 72
-80 153 -95 180 -15 28 -58 109 -95 180 -63 122 -93 179 -200 380 -23 44 -71
134 -105 200 -35 66 -80 152 -100 190 -44 82 -112 212 -200 380 -68 130 -122
232 -192 365 -25 47 -71 135 -103 195 -58 111 -112 214 -190 360 -53 99 -119
225 -220 420 -92 176 -119 218 -174 268 -73 66 -155 98 -261 101 -41 2 -95 -3
-120 -11z"/>
<path d="M1656 4554 c-235 -73 -342 -348 -219 -563 39 -68 89 -112 218 -191
66 -40 126 -79 134 -86 14 -13 -9 -54 -164 -299 -18 -27 -58 -93 -90 -145 -32
-52 -68 -111 -80 -130 -13 -19 -64 -102 -115 -185 -51 -82 -102 -166 -115
-185 -84 -130 -242 -394 -263 -439 -90 -196 21 -449 228 -520 132 -45 289 -8
393 94 34 33 213 311 432 671 11 18 39 64 63 103 84 139 202 326 212 338 5 7
10 15 10 18 0 3 24 42 53 88 29 45 64 101 77 125 13 23 27 42 31 42 4 0 43
-22 86 -50 219 -139 267 -159 373 -156 173 5 314 115 366 286 11 37 12 138 2
183 -24 106 -95 200 -202 264 -34 20 -62 41 -64 45 -2 4 -7 8 -11 8 -7 0 -400
242 -516 317 -48 31 -50 33 -323 203 -117 73 -239 143 -270 156 -68 28 -170
31 -246 8z"/>
<path d="M349 939 c-217 -56 -357 -247 -345 -474 3 -44 12 -100 21 -125 96
-267 392 -390 639 -266 211 106 307 325 241 551 -69 237 -313 375 -556 314z"/>
<path d="M6425 919 c-71 -17 -148 -63 -211 -124 -90 -88 -132 -181 -139 -303
-6 -133 42 -260 134 -352 68 -68 129 -103 216 -125 161 -40 316 4 435 124 101
102 141 204 135 346 -8 201 -135 367 -323 424 -64 20 -186 25 -247 10z"/>
</g>
</svg>
