<?xml version="1.0" standalone="no"?>
<!DOCTYPE svg PUBLIC "-//W3C//DTD SVG 20010904//EN"
 "http://www.w3.org/TR/2001/REC-SVG-20010904/DTD/svg10.dtd">
<svg version="1.0" xmlns="http://www.w3.org/2000/svg"
 width="700.000000pt" height="700.000000pt" viewBox="0 0 700.000000 700.000000"
 preserveAspectRatio="xMidYMid meet">
<metadata>
Created by potrace 1.14, written by Peter Selinger 2001-2017
</metadata>
<g transform="translate(0.000000,700.000000) scale(0.100000,-0.100000)"
fill="#000000" stroke="none">
<path d="M2070 6984 c-534 -70 -1011 -303 -1380 -675 -52 -52 -104 -107 -115
-120 -11 -13 -38 -47 -61 -74 -193 -235 -359 -566 -435 -869 -80 -312 -77
-262 -77 -1751 0 -1215 1 -1319 18 -1440 48 -345 148 -636 312 -905 21 -36 44
-74 51 -85 7 -11 51 -71 99 -135 340 -452 863 -780 1413 -885 44 -8 91 -17
104 -20 86 -17 338 -20 1511 -20 1249 0 1379 2 1510 25 95 16 103 18 190 39
646 154 1223 609 1527 1206 95 186 150 332 197 526 65 270 64 258 64 1699 0
1468 2 1428 -73 1731 -146 585 -528 1103 -1050 1423 -207 127 -513 253 -685
282 -14 3 -33 7 -42 10 -27 8 -63 14 -193 34 -111 17 -219 18 -1450 18 -1070
0 -1351 -3 -1435 -14z m2700 -648 c52 -3 109 -8 125 -11 17 -3 56 -10 88 -16
32 -5 99 -23 150 -38 351 -109 629 -300 852 -586 196 -251 322 -568 350 -880
7 -83 7 -2525 0 -2605 -55 -590 -412 -1108 -947 -1370 -132 -65 -326 -128
-446 -145 -20 -3 -48 -8 -62 -10 -78 -14 -265 -17 -1375 -17 -1105 0 -1304 2
-1400 18 -290 48 -544 154 -770 322 -69 52 -75 58 -171 150 -245 237 -431 590
-478 906 -4 21 -8 41 -10 45 -14 23 -18 330 -18 1416 0 1109 3 1290 17 1375 3
14 7 41 10 60 22 133 70 282 139 426 47 98 145 260 179 296 7 7 24 29 39 50
54 71 201 211 306 288 267 198 612 321 929 329 43 1 78 3 79 4 5 5 2331 -2
2414 -7z"/>
<path d="M1829 5256 c-197 -34 -359 -197 -385 -390 -3 -23 -5 -640 -6 -1372 0
-995 3 -1346 12 -1390 48 -237 286 -400 526 -362 54 8 160 48 193 73 42 31
120 118 143 162 57 104 59 123 58 664 l0 495 351 1 c192 1 371 4 397 8 63 9
162 59 207 104 89 88 127 171 131 291 5 138 -48 258 -152 341 -109 87 -141 92
-569 92 l-364 1 0 438 c0 491 -4 526 -69 628 -105 166 -284 248 -473 216z"/>
<path d="M4083 5250 c-77 -20 -133 -46 -173 -79 -95 -80 -149 -163 -173 -267
-20 -85 -18 -2756 2 -2824 72 -247 322 -392 563 -328 86 23 136 49 197 104 62
56 112 132 137 209 18 58 19 110 20 1420 1 1227 -1 1366 -15 1426 -61 244
-318 400 -558 339z"/>
<path d="M5313 4028 c-258 -39 -440 -307 -387 -568 19 -92 66 -175 137 -245
198 -193 504 -182 690 25 80 89 119 196 119 325 -1 288 -266 507 -559 463z"/>
</g>
</svg>
