<svg width="110" height="145" viewBox="0 0 110 145" fill="none" xmlns="http://www.w3.org/2000/svg">
<path d="M80.2152 14.4335H35.9822C22.868 14.4335 12.2451 25.4567 12.2451 39.0384V116.356C12.2451 124.104 15.9591 130.954 21.6338 135.103C21.9798 135.748 22.2913 136.107 22.5335 136.023C22.6027 135.999 22.7296 135.988 22.9141 135.988C26.2474 138.08 30.1575 139.287 34.3328 139.287H50.3882C50.5727 139.311 50.665 139.323 50.665 139.323L51.1148 139.287H80.2037C93.3179 139.287 103.941 128.264 103.941 114.682V39.0384C103.952 25.4567 93.3294 14.4335 80.2152 14.4335Z" fill="#E1E9F2"/>
<path d="M75.6004 26.165H40.5946C30.214 26.165 21.8057 35.1079 21.8057 46.155V108.947C21.8057 115.235 24.7468 120.795 29.2451 124.166C29.5104 124.692 29.7642 124.979 29.9602 124.908C30.0179 124.884 30.1217 124.884 30.2601 124.872C32.9014 126.569 35.9925 127.55 39.3028 127.55H52.0133C52.1517 127.574 52.2325 127.586 52.2325 127.586L52.59 127.55H75.612C85.9926 127.55 94.4009 118.607 94.4009 107.56V46.1431C94.3894 35.1199 85.9811 26.165 75.6004 26.165Z" fill="#C7D4DF"/>
<path d="M59.0026 102.249C61.2703 102.249 63.1087 100.344 63.1087 97.9929C63.1087 95.6423 61.2703 93.7367 59.0026 93.7367C56.7349 93.7367 54.8965 95.6423 54.8965 97.9929C54.8965 100.344 56.7349 102.249 59.0026 102.249Z" fill="#E1E9F2"/>
<path d="M72.8669 58.6196C71.6673 56.4436 69.9603 54.722 67.7573 53.4547C65.5543 52.1874 63.0168 51.5537 60.1333 51.5537C57.0421 51.5537 54.3316 52.3069 52.0018 53.8253C49.6834 55.3437 47.9072 57.2446 46.6961 59.5521C45.485 61.8596 44.8853 64.1312 44.8853 66.3788C44.8853 67.4668 45.2659 68.4831 46.0271 69.4156C46.7884 70.3481 47.7342 70.8144 48.8414 70.8144C50.733 70.8144 52.0133 69.4754 52.6823 66.8092C52.9245 65.9484 53.1898 65.1952 53.4666 64.4779C54.0087 61.202 56.7538 58.6913 60.0641 58.6913C63.778 58.6913 66.7769 61.8117 66.7769 65.6495C66.7769 67.9809 65.6581 70.0253 63.9626 71.2926C63.4089 71.9263 62.6477 72.7273 61.7019 73.7316C60.2486 75.25 59.1067 76.5532 58.2532 77.6531C57.3997 78.753 56.7192 80.0323 56.2002 81.4909C55.6811 82.9495 55.4274 84.6711 55.4274 86.6558C55.4274 88.2459 55.7849 89.4415 56.4885 90.2425C57.1921 91.0435 58.0571 91.45 59.0952 91.45C61.0791 91.45 62.2671 90.2186 62.6362 87.7557C62.8553 86.596 63.0168 85.783 63.1321 85.3287C63.2359 84.8624 63.3974 84.4081 63.5935 83.9418C63.7896 83.4756 64.0894 82.9734 64.5047 82.4115C64.9084 81.8615 65.4505 81.2159 66.131 80.4747C68.5762 77.8683 70.2602 76.0271 71.2059 74.9272C72.1517 73.8273 72.9591 72.5241 73.6512 71.0057C74.3317 69.4873 74.6777 67.7298 74.6777 65.7213C74.6662 63.1508 74.0664 60.7955 72.8669 58.6196Z" fill="#E1E9F2"/>
<path d="M20.4918 24.1581L14.4134 23.369L11.5875 17.7378C11.4145 17.3911 11.0685 17.1759 10.6879 17.1759C10.3072 17.1879 9.97277 17.415 9.81129 17.7737L7.21613 23.5244L1.17229 24.5645C0.791662 24.6243 0.491785 24.8993 0.387979 25.2819C0.272639 25.6645 0.376434 26.059 0.664785 26.334L5.14 30.6739L4.2288 36.9507C4.17113 37.3452 4.33261 37.7278 4.64403 37.955C4.79397 38.0626 4.97852 38.1224 5.15153 38.1343C5.33607 38.1463 5.52062 38.0985 5.69363 38.0028L11.057 34.9302L16.5356 37.7637C16.8817 37.943 17.2738 37.9072 17.5852 37.6681C17.8851 37.4289 18.0351 37.0344 17.9659 36.6518L16.8124 30.4109L21.1147 25.8916C21.3799 25.6047 21.4722 25.1982 21.3453 24.8276C21.1839 24.4689 20.8724 24.2059 20.4918 24.1581Z" fill="#C7D4DF"/>
<path d="M46.4541 6.40083L41.4137 5.75523L39.0723 1.08053C38.9224 0.793593 38.634 0.614258 38.3226 0.614258C38.0112 0.626214 37.7228 0.805554 37.596 1.10445L35.4391 5.87478L30.4218 6.73559C30.1104 6.78342 29.8566 7.02253 29.7644 7.33338C29.6721 7.64423 29.7644 7.979 29.995 8.20616L33.709 11.8048L32.9478 17.0175C32.9016 17.3403 33.0285 17.6632 33.2938 17.8425C33.4207 17.9381 33.5706 17.9859 33.7205 17.9979C33.8705 18.0099 34.0319 17.974 34.1704 17.8903L38.6225 15.3437L43.1669 17.699C43.4553 17.8425 43.7782 17.8186 44.032 17.6153C44.2857 17.4121 44.4011 17.0893 44.3434 16.7665L43.3861 11.5896L46.9501 7.83552C47.1692 7.59641 47.25 7.26166 47.1462 6.95081C47.0193 6.66387 46.7655 6.44866 46.4541 6.40083Z" fill="#C7D4DF"/>
<path d="M108.784 130.072L102.636 129.283L99.787 123.592C99.614 123.233 99.2564 123.018 98.8758 123.03C98.4952 123.042 98.1491 123.269 97.9877 123.628L95.3579 129.438L89.2449 130.49C88.8642 130.55 88.5644 130.837 88.449 131.219C88.3337 131.602 88.4375 132.009 88.7258 132.284L93.2472 136.671L92.3245 143.02C92.2668 143.414 92.4283 143.797 92.7397 144.036C92.9012 144.144 93.0742 144.215 93.2587 144.227C93.4432 144.239 93.6393 144.191 93.8008 144.096L99.2218 140.999L104.758 143.869C105.104 144.048 105.508 144.012 105.819 143.761C106.131 143.522 106.269 143.127 106.2 142.733L105.023 136.432L109.372 131.853C109.637 131.566 109.729 131.16 109.602 130.777C109.487 130.383 109.164 130.12 108.784 130.072Z" fill="#C7D4DF"/>
</svg>
