<svg width="110" height="145" viewBox="0 0 110 145" fill="none" xmlns="http://www.w3.org/2000/svg">
<path d="M81.3763 0.616943H28.6408C13.0096 0.616943 0.342285 13.2829 0.342285 28.9124V117.831C0.342285 126.735 4.77372 134.614 11.542 139.387C11.9552 140.128 12.3257 140.541 12.6249 140.441C12.7104 140.413 12.8672 140.399 13.0809 140.399C17.0564 142.806 21.7158 144.188 26.7029 144.188H45.8393C46.0531 144.217 46.1671 144.231 46.1671 144.231L46.6943 144.188H81.3621C96.9932 144.188 109.661 131.522 109.661 115.893V28.9266C109.675 13.2829 96.9932 0.616943 81.3763 0.616943ZM98.2756 107.715C98.2756 111.134 97.5347 114.369 96.2238 117.275C94.6136 98.7249 79.239 82.1408 55.0157 82.3261C25.3208 82.5398 15.7597 108.442 13.3374 117.46C12.3257 114.938 11.7557 112.189 11.7557 109.296V37.0904C11.7557 24.3959 21.787 14.1093 34.1551 14.1093H75.8905C88.2586 14.1093 98.2899 24.3959 98.2899 37.0904V107.715H98.2756Z" fill="#C7D4DF"/>
<path d="M55.8124 68.8309C65.0591 68.8309 72.555 61.3358 72.555 52.0901C72.555 42.8445 65.0591 35.3494 55.8124 35.3494C46.5657 35.3494 39.0698 42.8445 39.0698 52.0901C39.0698 61.3358 46.5657 68.8309 55.8124 68.8309Z" fill="#C7D4DF"/>
<path d="M66.9146 27.4604C66.9146 28.358 67.6412 29.0846 68.5389 29.0846H74.2813C75.179 29.0846 75.9057 29.8112 75.9057 30.7088V35.268C75.9057 36.1656 76.6324 36.8922 77.5301 36.8922H78.0288C78.9265 36.8922 79.6532 36.1656 79.6532 35.268V27.4604C79.6532 26.5628 78.9265 25.8362 78.0288 25.8362H68.5389C67.6412 25.8362 66.9146 26.5628 66.9146 27.4604Z" fill="#C7D4DF"/>
<path d="M77.7864 67.6936C76.7463 67.6936 75.9198 68.5342 75.9198 69.56V73.6205C75.9198 74.6606 75.0791 75.487 74.0532 75.487H68.3536C67.5699 75.487 66.9287 76.1281 66.9287 76.9117V77.3106C66.9287 78.0942 67.5699 78.7354 68.3536 78.7354H77.8007C78.8409 78.7354 79.6673 77.8948 79.6673 76.869V69.56C79.6673 68.5342 78.8266 67.6936 77.7864 67.6936Z" fill="#C7D4DF"/>
<path d="M43.4466 27.4604C43.4466 26.5628 42.7199 25.8362 41.8222 25.8362H32.3324C31.4347 25.8362 30.708 26.5628 30.708 27.4604V35.268C30.708 36.1656 31.4347 36.8922 32.3324 36.8922H32.8311C33.7288 36.8922 34.4555 36.1656 34.4555 35.268V30.7088C34.4555 29.8112 35.1822 29.0846 36.0799 29.0846H41.8222C42.7199 29.0846 43.4466 28.358 43.4466 27.4604Z" fill="#C7D4DF"/>
<path d="M34.4413 73.877V69.3178C34.4413 68.4202 33.7146 67.6936 32.8169 67.6936H32.3182C31.4205 67.6936 30.6938 68.4202 30.6938 69.3178V77.1254C30.6938 78.023 31.4205 78.7496 32.3182 78.7496H41.8081C42.7058 78.7496 43.4325 78.023 43.4325 77.1254C43.4325 76.2278 42.7058 75.5012 41.8081 75.5012H36.0657C35.168 75.5012 34.4413 74.7746 34.4413 73.877Z" fill="#C7D4DF"/>
</svg>
