<svg width="53" height="69" viewBox="0 0 53 69" fill="none" xmlns="http://www.w3.org/2000/svg">
<path d="M13.9094 0.108067L4.26103 2.11722C1.40049 2.71112 -0.464804 5.65536 0.101344 8.68805L3.30157 25.9428C3.62338 27.6739 4.71396 29.0323 6.12635 29.6957C6.22766 29.8221 6.31109 29.8916 6.36472 29.86C6.37664 29.8537 6.40645 29.8411 6.44816 29.8347C7.26461 30.1506 8.16449 30.2391 9.07629 30.0496L12.5804 29.3167C12.6222 29.3167 12.64 29.3103 12.64 29.3103L12.7354 29.2787L19.0822 27.9583C21.9428 27.3644 23.8081 24.4201 23.2419 21.3874L20.1132 4.51178C19.547 1.48541 16.77 -0.492153 13.9094 0.108067Z" fill="#E1E9F2"/>
<path d="M14.4937 23.5669L17.086 20.1993C17.1993 20.054 17.39 20.0161 17.5449 20.1046L21.2696 22.3159C21.2577 22.1958 21.2398 22.0695 21.2159 21.9494L18.2303 5.81301C17.7893 3.43741 15.6141 1.88947 13.3793 2.35701L5.56046 3.98708C3.3197 4.45462 1.85964 6.76073 2.30064 9.13002L5.29824 25.2728V25.2791C5.3638 25.6139 5.79287 25.6834 5.95973 25.3865L8.88583 20.1614C8.9931 19.9656 9.23744 19.915 9.41026 20.0477L13.9931 23.6237C14.154 23.7564 14.3685 23.7248 14.4937 23.5669Z" fill="#C7D4DF"/>
<path d="M9.71983 28.4258L18.2418 26.6504C20.1012 26.265 21.3765 24.4833 21.2812 22.531C21.2752 22.4046 21.2037 22.2846 21.0965 22.2214L17.5446 20.1111C17.3897 20.0227 17.1989 20.0606 17.0857 20.2059L14.4934 23.5735C14.3682 23.7314 14.1537 23.763 13.9987 23.6366L9.41591 20.0606C9.24309 19.9279 8.99875 19.9785 8.89148 20.1743L5.65548 25.9491C5.59588 26.0565 5.58397 26.1955 5.6376 26.3092C6.37657 27.8635 8.02735 28.7796 9.71983 28.4258Z" fill="#E1E9F2"/>
<path d="M11.1262 13.9644C12.8508 13.9644 14.249 12.4821 14.249 10.6537C14.249 8.82526 12.8508 7.34302 11.1262 7.34302C9.40153 7.34302 8.00343 8.82526 8.00343 10.6537C8.00343 12.4821 9.40153 13.9644 11.1262 13.9644Z" fill="#E1E9F2"/>
<path d="M48.5638 41.3028L39.124 38.3648C36.329 37.4929 33.391 39.1925 32.5746 42.162L27.9023 59.0377C27.4315 60.7309 27.813 62.4684 28.7724 63.751C28.8082 63.9152 28.8499 64.0163 28.9095 64.01C28.9274 64.01 28.9572 64.0163 28.9929 64.029C29.577 64.705 30.3398 65.2294 31.2337 65.5074L34.6604 66.5752C34.6961 66.5941 34.72 66.6004 34.72 66.6004L34.8153 66.6194L41.0191 68.5527C43.8141 69.4246 46.7521 67.725 47.5686 64.7555L52.1395 48.2527C52.9619 45.2832 51.3588 42.1746 48.5638 41.3028Z" fill="#C7D4DF"/>
<path d="M32.5266 64.3829L40.8639 66.9733C42.6875 67.5419 44.5885 66.5816 45.3513 64.8062C45.399 64.6861 45.3871 64.5534 45.3215 64.446L43.0867 60.8321C42.9914 60.6741 42.8007 60.6173 42.6398 60.6868L38.8734 62.4053C38.6946 62.4874 38.492 62.4053 38.4026 62.2221L35.8937 56.8075C35.7983 56.6053 35.5599 56.5295 35.3752 56.6495L29.9879 60.1876C29.8865 60.2571 29.815 60.3709 29.815 60.5035C29.7972 62.2473 30.8639 63.8648 32.5266 64.3829Z" fill="#C7D4DF"/>
<path d="M42.2411 53.4772C43.9657 53.4772 45.3638 51.995 45.3638 50.1665C45.3638 48.3381 43.9657 46.8558 42.2411 46.8558C40.5164 46.8558 39.1183 48.3381 39.1183 50.1665C39.1183 51.995 40.5164 53.4772 42.2411 53.4772Z" fill="#C7D4DF"/>
<path d="M45.441 36.3109C45.4172 36.3109 45.3874 36.3109 45.3636 36.3109C44.3743 36.2666 43.6115 35.3821 43.6532 34.3396C43.8797 28.7418 42.0322 23.384 38.4566 19.2583C34.8809 15.1326 30.0001 12.7254 24.72 12.4916C23.7307 12.4474 22.9679 11.5629 23.0096 10.5204C23.0513 9.47788 23.9035 8.66284 24.869 8.70707C31.1026 8.98507 36.8654 11.8282 41.0847 16.6995C45.304 21.5707 47.4851 27.8951 47.2229 34.5102C47.1872 35.5148 46.3945 36.3109 45.441 36.3109Z" fill="#C7D4DF"/>
<path d="M22.9674 58.197C22.9435 58.197 22.9138 58.197 22.8899 58.197C10.0175 57.6157 -0.0122827 46.041 0.535987 32.3939C0.577704 31.3514 1.42396 30.5427 2.39535 30.5806C3.38462 30.6248 4.14743 31.5093 4.10572 32.5518C3.64088 44.1076 12.1331 53.9133 23.0389 54.4061C24.0282 54.4503 24.791 55.3349 24.7493 56.3774C24.7135 57.4009 23.9209 58.197 22.9674 58.197Z" fill="#C7D4DF"/>
</svg>
