<svg width="53" height="69" viewBox="0 0 53 69" fill="none" xmlns="http://www.w3.org/2000/svg">
<path d="M38.2534 6.61829H17.0692C10.7886 6.61829 5.70105 11.8975 5.70105 18.4021V55.4312C5.70105 59.1416 7.47974 62.4225 10.1975 64.4094C10.3632 64.7186 10.5124 64.8903 10.6284 64.8503C10.6615 64.8388 10.7223 64.8331 10.8107 64.8331C12.4071 65.8351 14.2797 66.4134 16.2793 66.4134H23.9686C24.0569 66.4249 24.1011 66.4306 24.1011 66.4306L24.3166 66.4134H38.2478C44.5285 66.4134 49.616 61.1342 49.616 54.6296V18.4021C49.6215 11.8975 44.534 6.61829 38.2534 6.61829Z" fill="#E1E9F2"/>
<path d="M36.0433 12.2368H19.2783C14.3068 12.2368 10.2798 16.5197 10.2798 21.8104V51.8826C10.2798 54.8944 11.6884 57.557 13.8428 59.1716C13.9698 59.4236 14.0913 59.561 14.1852 59.5266C14.2129 59.5152 14.2626 59.5152 14.3289 59.5095C15.5938 60.3225 17.0742 60.7921 18.6596 60.7921H24.7469C24.8132 60.8035 24.8519 60.8092 24.8519 60.8092L25.0231 60.7921H36.0488C41.0203 60.7921 45.0472 56.5091 45.0472 51.2184V21.8047C45.0417 16.5255 41.0148 12.2368 36.0433 12.2368Z" fill="#C7D4DF"/>
<path d="M28.0942 48.6751C29.1803 48.6751 30.0607 47.7625 30.0607 46.6367C30.0607 45.5109 29.1803 44.5983 28.0942 44.5983C27.0081 44.5983 26.1277 45.5109 26.1277 46.6367C26.1277 47.7625 27.0081 48.6751 28.0942 48.6751Z" fill="#E1E9F2"/>
<path d="M34.7342 27.7799C34.1597 26.7378 33.3421 25.9133 32.2871 25.3063C31.232 24.6994 30.0168 24.3959 28.6358 24.3959C27.1554 24.3959 25.8573 24.7567 24.7414 25.4838C23.6311 26.211 22.7805 27.1214 22.2004 28.2265C21.6204 29.3316 21.3332 30.4195 21.3332 31.496C21.3332 32.017 21.5155 32.5038 21.8801 32.9504C22.2446 33.397 22.6976 33.6203 23.2279 33.6203C24.1338 33.6203 24.747 32.979 25.0673 31.7021C25.1834 31.2899 25.3104 30.9291 25.443 30.5856C25.7026 29.0167 27.0173 27.8143 28.6026 27.8143C30.3813 27.8143 31.8175 29.3087 31.8175 31.1467C31.8175 32.2633 31.2817 33.2424 30.4697 33.8493C30.2046 34.1528 29.84 34.5364 29.387 35.0174C28.691 35.7446 28.1442 36.3687 27.7354 36.8955C27.3266 37.4223 27.0007 38.0349 26.7521 38.7335C26.5036 39.432 26.382 40.2566 26.382 41.2071C26.382 41.9686 26.5533 42.5412 26.8902 42.9248C27.2272 43.3084 27.6415 43.5031 28.1386 43.5031C29.0887 43.5031 29.6577 42.9134 29.8345 41.7338C29.9394 41.1784 30.0168 40.7891 30.072 40.5715C30.1217 40.3482 30.199 40.1306 30.2929 39.9073C30.3869 39.684 30.5305 39.4435 30.7293 39.1744C30.9227 38.911 31.1823 38.6018 31.5082 38.2468C32.6793 36.9986 33.4858 36.1168 33.9387 35.59C34.3917 35.0632 34.7784 34.4391 35.1098 33.7119C35.4357 32.9847 35.6014 32.143 35.6014 31.1811C35.5959 29.95 35.3087 28.822 34.7342 27.7799Z" fill="#E1E9F2"/>
<path d="M9.65075 11.2756L6.73966 10.8977L5.3863 8.20081C5.30344 8.03476 5.13773 7.9317 4.95544 7.9317C4.77315 7.93743 4.61296 8.04622 4.53563 8.21799L3.29275 10.9721L0.398227 11.4703C0.215938 11.4989 0.072321 11.6306 0.0226059 11.8138C-0.032633 11.9971 0.0170766 12.186 0.155174 12.3177L2.29845 14.3962L1.86206 17.4023C1.83444 17.5912 1.91177 17.7744 2.06092 17.8832C2.13273 17.9348 2.22111 17.9634 2.30397 17.9691C2.39235 17.9749 2.48073 17.952 2.56359 17.9061L5.13221 16.4346L7.75606 17.7916C7.92178 17.8775 8.10958 17.8603 8.25873 17.7458C8.40235 17.6313 8.47416 17.4423 8.44102 17.2591L7.88863 14.2702L9.94905 12.1058C10.0761 11.9684 10.1203 11.7737 10.0595 11.5962C9.98219 11.4245 9.83304 11.2985 9.65075 11.2756Z" fill="#C7D4DF"/>
<path d="M22.0846 2.77131L19.6707 2.46212L18.5494 0.223308C18.4775 0.0858875 18.3395 0 18.1903 0C18.0412 0.00572586 17.9031 0.0916158 17.8423 0.234762L16.8093 2.51937L14.4064 2.93164C14.2573 2.95454 14.1358 3.06906 14.0916 3.21793C14.0474 3.3668 14.0916 3.52713 14.2021 3.63592L15.9808 5.3594L15.6162 7.85588C15.5941 8.01048 15.6548 8.16508 15.7819 8.25096C15.8427 8.29677 15.9145 8.31967 15.9863 8.32539C16.0581 8.33112 16.1354 8.31394 16.2017 8.27386L18.3339 7.05425L20.5103 8.18225C20.6484 8.25096 20.8031 8.23951 20.9246 8.14217C21.0462 8.04483 21.1014 7.89023 21.0738 7.73563L20.6153 5.25633L22.3222 3.45841C22.4271 3.3439 22.4658 3.18358 22.4161 3.03471C22.3553 2.89729 22.2338 2.79422 22.0846 2.77131Z" fill="#C7D4DF"/>
<path d="M51.9354 61.9999L48.9912 61.622L47.6268 58.8965C47.5439 58.7247 47.3727 58.6216 47.1904 58.6274C47.0081 58.6331 46.8424 58.7419 46.7651 58.9137L45.5056 61.6964L42.5779 62.2003C42.3957 62.2289 42.252 62.3664 42.1968 62.5496C42.1416 62.7328 42.1913 62.9275 42.3294 63.0592L44.4947 65.1606L44.0528 68.201C44.0252 68.39 44.1025 68.5732 44.2517 68.6877C44.329 68.7392 44.4119 68.7736 44.5003 68.7793C44.5886 68.785 44.6826 68.7621 44.7599 68.7163L47.3561 67.2333L50.0076 68.6075C50.1733 68.6934 50.3666 68.6762 50.5158 68.556C50.6649 68.4415 50.7312 68.2525 50.6981 68.0636L50.1346 65.046L52.2171 62.853C52.3442 62.7156 52.3884 62.521 52.3276 62.3377C52.2724 62.1488 52.1177 62.0228 51.9354 61.9999Z" fill="#C7D4DF"/>
</svg>
