<svg width="51" height="51" viewBox="0 0 51 51" fill="none" xmlns="http://www.w3.org/2000/svg">
<path d="M32.9184 15.9178L28.452 20.3533L30.6465 22.5478L35.082 18.0815L38.6365 21.636V12.3633H29.3638L32.9184 15.9178ZM20.0911 12.3633H10.8184V21.636L14.3729 18.0815L18.8084 22.5478L21.0029 20.3533L16.5365 15.9178L20.0911 12.3633ZM18.8084 29.9969L14.3729 34.4633L10.8184 30.9087V40.1815H20.0911L16.5365 36.6269L21.0029 32.1915L18.8084 29.9969ZM30.6465 29.9969L28.452 32.1915L32.9184 36.6269L29.3638 40.1815H38.6365V30.9087L35.082 34.4633L30.6465 29.9969Z" fill="white"/>
<circle cx="25.5" cy="25.5" r="25.5" fill="#0C0B0B"/>
<g clip-path="url(#clip0_6814_20438)">
<path d="M33.7367 15.1913L29.2704 19.6267L31.4649 21.8213L35.9004 17.3549L39.4549 20.9094V11.6367H30.1822L33.7367 15.1913ZM20.9094 11.6367H11.6367V20.9094L15.1913 17.3549L19.6267 21.8213L21.8213 19.6267L17.3549 15.1913L20.9094 11.6367ZM19.6267 29.2704L15.1913 33.7367L11.6367 30.1822V39.4549H20.9094L17.3549 35.9004L21.8213 31.4649L19.6267 29.2704ZM31.4649 29.2704L29.2704 31.4649L33.7367 35.9004L30.1822 39.4549H39.4549V30.1822L35.9004 33.7367L31.4649 29.2704Z" fill="white"/>
</g>
<defs>
<clipPath id="clip0_6814_20438">
<rect width="37.0909" height="37.0909" fill="white" transform="translate(7 7)"/>
</clipPath>
</defs>
</svg>
